<?xml version="1.0" encoding="UTF-8"?>
<svg version="1.1" xmlns="http://www.w3.org/2000/svg" width="512" height="512">
<path d="M0 0 C6.12280024 4.26877653 11.29669992 9.79580514 15.64453125 15.84375 C16.22847656 15.0084375 16.22847656 15.0084375 16.82421875 14.15625 C25.41820576 2.43357648 36.46869158 -4.83788096 50.64453125 -8.15625 C68.66838686 -9.86562016 81.9726431 -6.3265717 96.76953125 4.03125 C103.62418067 10.08748855 108.46108396 18.36153847 111.64453125 26.84375 C112.52753906 26.699375 113.41054688 26.555 114.3203125 26.40625 C133.21152363 23.48430112 151.79756339 24.70845471 168.2734375 35.578125 C170.47291062 37.26029395 172.55941494 39.02294421 174.64453125 40.84375 C175.23363281 41.27945313 175.82273437 41.71515625 176.4296875 42.1640625 C185.46139834 49.03556915 191.79211352 60.37423828 195.64453125 70.84375 C195.96292969 71.70613281 196.28132813 72.56851563 196.609375 73.45703125 C200.03571326 84.62026235 199.98257047 98.41752606 197.64453125 109.84375 C198.75828125 110.25625 199.87203125 110.66875 201.01953125 111.09375 C201.75558594 111.37476562 202.49164063 111.65578125 203.25 111.9453125 C204.80547779 112.52893386 206.37054765 113.08780984 207.9453125 113.6171875 C226.47584096 120.22873448 239.91688469 134.88611356 248.39453125 152.21875 C255.84376083 169.72321026 256.09694209 189.974105 249.64453125 207.84375 C247.57744965 212.65388919 245.18946546 217.26858737 242.64453125 221.84375 C244.09859375 223.143125 244.09859375 223.143125 245.58203125 224.46875 C260.26450324 239.18100389 267.97979416 260.06600209 268.08203125 280.59375 C267.94024888 292.24909446 265.99471955 303.80577529 259.64453125 313.84375 C257.08498048 315.71440636 255.85244044 315.85596399 252.65234375 315.66796875 C249.50547873 315.52761608 249.50547873 315.52761608 247.44921875 317.92578125 C246.81242187 318.82683594 246.175625 319.72789062 245.51953125 320.65625 C241.93965402 325.63788639 241.93965402 325.63788639 239.41015625 327.40234375 C237.43037566 328.68111787 237.43037566 328.68111787 237.38671875 330.859375 C237.43054688 331.59671875 237.474375 332.3340625 237.51953125 333.09375 C237.28466776 336.18195502 237.00508595 337.46031546 234.859375 339.7421875 C228.00600981 344.66769549 220.23379775 348.21097314 212.64453125 351.84375 C210.64270644 352.84009203 208.64210409 353.83891033 206.64453125 354.84375 C207.05703125 355.27042969 207.46953125 355.69710938 207.89453125 356.13671875 C220.21438656 369.47406211 228.298285 385.39028315 227.9140625 403.67578125 C227.03008363 422.26546508 218.06831405 438.35779312 204.64453125 450.84375 C189.81571155 463.39938387 172.10825524 470.03597241 152.64453125 468.84375 C148.61982079 468.29665579 144.63270502 467.61123361 140.64453125 466.84375 C140.17144531 467.52179688 139.69835937 468.19984375 139.2109375 468.8984375 C127.15113835 485.87148816 113.28614197 498.6830292 92.33984375 503.375 C72.17781396 505.93255135 53.72868444 503.6238782 36.78125 491.85546875 C34.31746734 489.93005438 31.96708286 487.9365528 29.64453125 485.84375 C29.0103125 485.29074219 28.37609375 484.73773438 27.72265625 484.16796875 C22.6286905 479.44590758 19.17757157 473.78226459 15.64453125 467.84375 C15.13664063 468.55660156 14.62875 469.26945312 14.10546875 470.00390625 C11.97498748 472.96822757 9.81759061 475.91051785 7.64453125 478.84375 C7.16757813 479.49472656 6.690625 480.14570313 6.19921875 480.81640625 C1.10337464 487.27012498 -6.74525972 493.67555139 -14.35546875 496.84375 C-17.35546875 497.15625 -17.35546875 497.15625 -20.35546875 496.84375 C-20.92265625 496.31523437 -21.48984375 495.78671875 -22.07421875 495.2421875 C-24.94648474 493.4814491 -26.63798558 493.92662709 -29.84375 494.64648438 C-30.50761719 494.81470703 -31.17148438 494.98292969 -31.85546875 495.15625 C-35.77014685 496.07980998 -39.29422502 496.84375 -43.35546875 496.84375 C-43.64421875 497.6275 -43.93296875 498.41125 -44.23046875 499.21875 C-45.35546875 501.84375 -45.35546875 501.84375 -47.35546875 503.84375 C-57.39294175 505.46940476 -69.16765635 502.31249227 -77.98046875 497.53125 C-81.77629982 495.63333447 -82.45018801 495.73637024 -86.35546875 496.84375 C-87.96625809 497.51558676 -89.57011569 498.20420118 -91.16796875 498.90625 C-100.87485909 502.48247276 -112.2275661 502.32268789 -121.76171875 498.23046875 C-133.93270845 491.72338841 -140.17569885 484.11284948 -144.69140625 471.2265625 C-145.35546875 468.84375 -145.35546875 468.84375 -145.35546875 465.84375 C-146.57234375 465.658125 -147.78921875 465.4725 -149.04296875 465.28125 C-161.51343795 462.42750626 -170.62838552 454.68947938 -179.35546875 445.84375 C-179.96132812 445.23660156 -180.5671875 444.62945312 -181.19140625 444.00390625 C-190.60426521 433.81909324 -197.64838628 418.75437329 -197.30273438 404.69946289 C-197.21480932 403.17701436 -197.12567959 401.65463497 -197.03540039 400.13232422 C-196.45650088 393.02301028 -196.45650088 393.02301028 -198.88671875 386.62109375 C-200.89787634 385.17538583 -200.89787634 385.17538583 -203.125 384.04296875 C-210.63027733 380.00773208 -214.38407381 371.82408902 -216.9375 364.078125 C-218.93705746 353.38890197 -217.63781407 342.76579116 -213.35546875 332.84375 C-213.99613281 332.24949219 -214.63679688 331.65523438 -215.296875 331.04296875 C-227.87554683 318.98918934 -236.86870373 303.67322596 -237.69140625 285.93359375 C-237.72082302 284.21634841 -237.73335449 282.49874485 -237.73046875 280.78125 C-237.73030762 279.87238037 -237.73014648 278.96351074 -237.72998047 278.02709961 C-237.56946827 268.39045412 -235.56968242 259.57063598 -232.08984375 250.5703125 C-231.72632813 249.22066406 -231.72632813 249.22066406 -231.35546875 247.84375 C-232.49425841 246.40351602 -233.65163699 244.97335791 -234.90625 243.6328125 C-241.62893578 235.33364784 -241.27823119 223.92749292 -240.35546875 213.84375 C-239.20102243 206.03062221 -235.49249084 199.77875611 -230.35546875 193.84375 C-229.30230469 193.09351563 -228.24914062 192.34328125 -227.1640625 191.5703125 C-223.99722462 189.03164365 -223.99722462 189.03164365 -223.69140625 184.98046875 C-223.68186379 183.49736937 -223.6961118 182.01398208 -223.73046875 180.53125 C-223.3432401 160.58796099 -216.67861397 144.38759955 -202.578125 130.234375 C-200.16863845 127.97388092 -200.16863845 127.97388092 -199.35546875 124.84375 C-199.90432691 122.77872206 -199.90432691 122.77872206 -200.79296875 120.53125 C-204.27793443 109.53032147 -203.11171058 98.26232761 -197.94921875 88.06640625 C-192.2762857 78.31270769 -184.74777192 71.94395643 -173.984375 68.453125 C-170.30128656 67.59939276 -167.11830138 67.55976263 -163.35546875 67.84375 C-163.09121094 66.96460937 -162.82695312 66.08546875 -162.5546875 65.1796875 C-156.53789624 48.44242451 -142.59261483 37.60659575 -127.15625 30.05859375 C-124.71954264 29.00166768 -122.41056367 28.2811132 -119.85546875 27.59375 C-115.27532239 25.30367682 -114.96233213 23.20945409 -113.390625 18.53515625 C-110.13720781 10.07627156 -103.17910816 4.05563956 -95.35546875 -0.15625 C-85.08699366 -4.46773395 -76.00021063 -5.68650034 -65.35546875 -2.34375 C-60.54943464 -0.99731243 -58.06284253 -1.21675057 -53.54296875 -3.34375 C-52.71152344 -3.81167969 -51.88007813 -4.27960937 -51.0234375 -4.76171875 C-35.33560692 -12.96165362 -14.55429115 -8.35326812 0 0 Z " fill="#020202" transform="translate(242.35546875,8.15625)"/>
<path d="M0 0 C9.52808937 6.70397424 14.80865124 15.43637824 19.04296875 26.08984375 C20.14311687 28.28564958 21.01528075 29.53852492 23 31 C25.53507959 31.43882717 25.53507959 31.43882717 28.3125 31.3125 C29.23675781 31.30863281 30.16101563 31.30476563 31.11328125 31.30078125 C34.03539862 31.11154047 34.03539862 31.11154047 36.7890625 30.00390625 C47.76820847 26.57125356 61.72121122 28.31166948 72 33 C87.26159849 41.3899859 97.20649251 53.07799606 102.3125 69.875 C104.140164 78.38669235 103.14842249 86.99950492 101.46484375 95.4296875 C101.01303427 97.92792815 100.70052783 100.34030711 100.5625 102.875 C100.52253906 103.55304688 100.48257813 104.23109375 100.44140625 104.9296875 C101.37337088 108.38382214 103.22997918 109.80048865 106 112 C108.8309745 113.12311377 111.71979909 113.77431974 114.6875 114.4375 C129.47403818 118.1756032 141.00535065 126.45728459 149.46875 139.33203125 C157.30008438 152.97693273 160.77643782 168.58974509 156.61230469 184.02709961 C154.3562401 191.52662532 151.10444982 197.66268704 146.57421875 204.03515625 C144.6242438 207.70768971 144.42825431 209.89467851 145 214 C146.59872414 216.54660744 146.59872414 216.54660744 148.9375 218.6875 C162.32981397 232.62729851 171.88606708 248.45849563 172.3125 268.25 C172.0940439 275.48754543 170.69512333 281.50194847 167.8125 288.125 C165.99114047 292.48542951 165.69596452 295.34273044 167 300 C167.64554372 301.34368729 168.30829921 302.67948031 169 304 C160.92255125 314.74259681 160.92255125 314.74259681 155 318 C154.195625 317.2575 154.195625 317.2575 153.375 316.5 C150.28259147 314.54689987 148.62345299 314.64250951 145 315 C142.1432874 316.48746037 142.1432874 316.48746037 139.3125 318.5625 C133.10507532 322.73020954 126.63661418 325.20200068 119.53637695 327.47680664 C114.58299368 329.13205321 111.3117468 330.7438879 108 335 C106.58148023 338.53996674 106.91729542 341.37654866 108 345 C110.67246543 349.49898008 114.2073592 353.40856821 117.61083984 357.36181641 C127.44946685 368.96413402 132.48274831 379.75866874 131.23925781 394.99316406 C129.6899588 407.98830474 122.05696753 420.79095583 112 429 C98.28515492 439.40586658 83.95742647 442.94488204 67 441 C64.98105014 440.39313437 62.97431242 439.73927998 61 439 C57.04163549 438.38441348 53.9078615 438.40360483 50.4609375 440.66796875 C47.8079742 443.1819673 46.38597861 445.46334085 44.6875 448.6875 C36.64641478 462.90206355 25.34017594 470.70187565 10 476 C6.5 476.8125 6.5 476.8125 3 477 C2.13117188 477.05027344 1.26234375 477.10054688 0.3671875 477.15234375 C-16.1739486 477.69219806 -29.94291596 472.18596466 -42 461 C-52.74550681 450.176768 -58.1147216 436.20810332 -58.11329651 421.10829163 C-58.10813522 420.26946945 -58.10297394 419.43064728 -58.09765625 418.56640625 C-58.0962413 417.68846909 -58.09482635 416.81053192 -58.09336853 415.9059906 C-58.08780821 413.12479118 -58.07526321 410.34367474 -58.0625 407.5625 C-58.05747987 405.66731888 -58.05291786 403.77213648 -58.04882812 401.87695312 C-58.0378518 397.25127052 -58.02061482 392.62564929 -58 388 C-56.80793945 388.42587402 -55.61587891 388.85174805 -54.38769531 389.29052734 C-52.78471445 389.84793284 -51.1815123 390.40470223 -49.578125 390.9609375 C-48.79711426 391.24187256 -48.01610352 391.52280762 -47.21142578 391.81225586 C-41.65262127 393.7214848 -36.60398924 394.43752263 -30.75 394.625 C-27.92005998 394.80604853 -25.7800561 395.21540639 -23 396 C-20.61328294 398.79048498 -19.56275402 401.33205254 -18.28125 404.76171875 C-14.37336595 414.6386574 -6.27949852 419.44797924 2.86328125 423.72265625 C8.69041317 426.09559789 13.76771124 426.18304837 20 426.1875 C20.90234375 426.19974609 21.8046875 426.21199219 22.734375 426.22460938 C24.04148437 426.22750977 24.04148437 426.22750977 25.375 426.23046875 C26.16648437 426.23457764 26.95796875 426.23868652 27.7734375 426.24291992 C30.27757863 425.96971593 31.87149476 425.33295297 34 424 C35.39935013 421.20129973 35.25265405 419.09501208 35 416 C33.46887746 413.97118831 32.57327281 413.11358787 30.05810547 412.61523438 C28.97360107 412.60459961 28.97360107 412.60459961 27.8671875 412.59375 C27.06023437 412.57183594 26.25328125 412.54992187 25.421875 412.52734375 C24.58140625 412.51832031 23.7409375 412.50929688 22.875 412.5 C12.78400892 412.38858527 5.15303096 410.85570659 -2.3359375 403.76953125 C-5.77530427 400.11217644 -7 398.06088026 -7 393 C-6.45472656 392.78085937 -5.90945313 392.56171875 -5.34765625 392.3359375 C1.55898929 389.43160451 9.0799318 385.84165198 14 380 C14.91256309 376.52894948 14.91256309 376.52894948 15 373 C13.2642007 369.78583559 13.2642007 369.78583559 10.0625 368.8125 C5.93106737 368.33712595 3.66356952 370.3546214 0.4375 372.75 C-0.45066406 373.46671875 -1.33882813 374.1834375 -2.25390625 374.921875 C-11.62576345 382.01409126 -22.6922364 382.10487372 -34 381 C-42.58543122 379.37258751 -50.20090626 375.89954687 -58 372 C-58 363.42 -58 354.84 -58 346 C-55.793125 345.814375 -53.58625 345.62875 -51.3125 345.4375 C-30.49673598 343.09255475 -9.63637568 333.90210861 6 320 C7.09634766 319.11634766 7.09634766 319.11634766 8.21484375 318.21484375 C22.39954547 306.47320138 32.07838479 289.85262834 39 273 C44.83317448 272.77188703 49.52873331 273.37160767 55.0625 275.1875 C55.7627832 275.41381104 56.46306641 275.64012207 57.18457031 275.87329102 C63.77815912 278.10229463 68.24887266 280.24064784 72.0625 286.25 C73.77700683 289.24644293 73.77700683 289.24644293 77 290.0625 C79.96028536 290.17475927 79.96028536 290.17475927 82.375 289.0625 C84.83447171 285.94086283 84.40161079 282.76604832 84 279 C83.58268982 276.64470719 83.58268982 276.64470719 83 275 C87.67377283 271.0641913 90.67250202 270.64053396 96.73046875 271.15234375 C99.04940769 271.1910324 99.04940769 271.1910324 100.7890625 269.765625 C102.27822003 267.59433725 102.31562182 266.41764368 102.1875 263.8125 C102.125625 262.554375 102.06375 261.29625 102 260 C96.91865525 256.87301861 92.80700762 256.26648325 87 257 C82.51178163 258.41733212 79.60270695 260.32943415 76.125 263.375 C72.66900338 266.05637669 72.66900338 266.05637669 69.9140625 265.82421875 C67.75 265.0625 67.75 265.0625 65.48828125 264.0703125 C62.67541546 262.86038279 59.91432979 262.1489436 56.9375 261.4375 C55.93074219 261.19257813 54.92398438 260.94765625 53.88671875 260.6953125 C52.93410156 260.46585937 51.98148437 260.23640625 51 260 C49.41623828 259.60588418 47.83283772 259.21031054 46.25 258.8125 C45.1775 258.544375 44.105 258.27625 43 258 C43.15984375 256.76121094 43.3196875 255.52242188 43.484375 254.24609375 C45.79205673 233.29283467 44.3176086 212.78898809 36.3046875 193.2578125 C35.32387127 190.8087085 34.5296693 188.57083392 34 186 C34.71285156 185.78085938 35.42570312 185.56171875 36.16015625 185.3359375 C43.43774806 182.92639835 49.4201061 180.57624037 53.3125 173.671875 C55.68358777 168.30399574 56.61437552 163.83656741 56 158 C54.25935918 154.66730764 54.25935918 154.66730764 50.625 154.125 C47.11917591 153.69613356 47.11917591 153.69613356 44.83203125 155.18359375 C42.54483981 157.45127823 42.40969855 158.77466391 42.0625 161.9375 C41.45226892 165.67516538 41.26105398 166.72555864 38.5625 169.5625 C34.23703958 171.98897779 29.90344099 173.09248851 25 172 C22.43114917 170.08310373 20.66220573 167.67734458 18.75 165.125 C17.62709833 163.73495112 16.49678492 162.35085896 15.359375 160.97265625 C14.79798828 160.29219238 14.23660156 159.61172852 13.65820312 158.91064453 C6.99059246 151.22797065 -1.5656473 145.75400599 -10.28515625 140.69140625 C-12.56418001 139.27152526 -14.23605676 137.99588042 -16 136 C-3.93240553 124.00339138 10.83873691 119.84359803 27.57421875 119.50390625 C30.13868389 119.20808919 30.13868389 119.20808919 31.81640625 117.125 C33.26632935 114.52183773 33.30166034 112.94118836 33 110 C32.67 109.01 32.34 108.02 32 107 C20.63418478 102.54230642 5.62911398 107.17655168 -5.15234375 111.66015625 C-14.61732717 115.91054148 -21.80184744 121.59358263 -29 129 C-29.33 129.33 -29.66 129.66 -30 130 C-35.79085336 129.5329957 -41.42935861 128.61041415 -47.12890625 127.5 C-50.73269678 126.8724011 -54.37021734 126.45372283 -58 126 C-58 109.83 -58 93.66 -58 77 C-53 78 -53 78 -49.8203125 79.19140625 C-36.03648446 84.30570185 -18.75181595 86.3159501 -4.98828125 80.0703125 C-3.63700456 79.34290619 -2.30110692 78.58634181 -0.98046875 77.8046875 C1.54954503 76.77671346 2.4749418 77.00716048 5 78 C6.71431489 78.95329991 8.4009466 79.95745669 10.0625 81 C16.1701677 84.82073648 20.86161368 85.60244343 28 85 C31.16788784 84.18816067 31.16788784 84.18816067 33 82 C33.68826064 77.3733777 33.68826064 77.3733777 31.734375 73.30859375 C29.60319659 71.70061004 28.39461153 71.64109859 25.75 71.5625 C20.9035981 71.19763177 18.02958057 69.65780846 14 67 C15.1129404 63.9394139 16.41786846 61.33761858 18.1875 58.625 C19.95066924 55.63613318 19.99567346 54.8658772 19.875 51.125 C19.58625 50.09375 19.2975 49.0625 19 48 C15.95016004 46.47508002 13.3576631 46.76437452 10 47 C7.15216555 49.25298652 5.384246 52.32343651 3.375 55.3125 C-0.32564166 60.47014105 -4.20482874 64.29101462 -10 67 C-10.99 67 -11.98 67 -13 67 C-13.02578125 65.87722656 -13.0515625 64.75445312 -13.078125 63.59765625 C-13.4349507 51.76687969 -13.4349507 51.76687969 -18 41 C-18.39574219 40.34515625 -18.79148437 39.6903125 -19.19921875 39.015625 C-21.5890822 35.36674831 -23.81529757 32.59417236 -28 31 C-31.66364808 30.9872962 -31.66364808 30.9872962 -35 32 C-37.28296054 34.84130196 -37.28296054 34.84130196 -37.0625 38.1875 C-35.79744841 42.72680276 -33.80326017 44.95315692 -30.59375 48.30078125 C-27.16389367 51.95761337 -27.88759025 55.89509163 -27.9375 60.625 C-27.94201172 61.42679687 -27.94652344 62.22859375 -27.95117188 63.0546875 C-27.96296832 65.03649006 -27.98090395 67.01825433 -28 69 C-39.1031697 68.75524075 -48.19223478 64.94095254 -58 60 C-58.12514556 55.3777007 -58.21505102 50.75642228 -58.2746582 46.1328125 C-58.29954765 44.56558012 -58.33347282 42.99846065 -58.37719727 41.43164062 C-58.73795313 28.15582495 -56.82600644 17.58846098 -48.015625 7.03515625 C-34.67898767 -6.43071206 -16.86246069 -9.37290023 0 0 Z " fill="#FC989E" transform="translate(323,20)"/>
<path d="M0 0 C19.39678649 16.63266947 32.91544044 38.22783125 35.29907227 64.07885742 C37.53347646 94.18147636 29.91811452 118.83266531 10.15771484 141.90136719 C-6.92849759 160.21698404 -31.84699784 171.35491759 -56.82641602 172.27685547 C-75.60743929 172.52444843 -92.31375351 168.1932474 -108.50244141 158.75292969 C-109.51822266 158.17414063 -110.53400391 157.59535156 -111.58056641 156.99902344 C-133.7142722 143.67552177 -147.47651297 121.55353989 -154.24853516 97.05371094 C-159.51878256 72.15633528 -154.65383475 45.04211148 -141.34228516 23.48730469 C-126.97730102 2.13807136 -105.94411044 -13.135143 -80.50244141 -18.24707031 C-53.12027695 -23.31651927 -21.80996407 -18.1029081 0 0 Z " fill="#F0F9FD" transform="translate(317.50244140625,180.2470703125)"/>
<path d="M0 0 C1.5078125 1.71484375 1.5078125 1.71484375 3.125 3.9375 C12.75244534 16.61363636 23.59652995 26.92852892 38 34 C36.56830884 37.0249417 34.90373424 39.73859709 33.015625 42.5 C32.41717773 43.3770459 31.81873047 44.2540918 31.20214844 45.15771484 C30.55793945 46.09566895 29.91373047 47.03362305 29.25 48 C28.58258789 48.97533691 27.91517578 49.95067383 27.22753906 50.95556641 C22.19635286 58.29360248 17.11003014 65.59212381 11.99560547 72.87231445 C8.42448376 77.95663191 4.88447967 83.06046403 1.375 88.1875 C-4.32984516 96.51970249 -10.15872376 104.76308691 -16 113 C-16.84046875 112.84015625 -17.6809375 112.6803125 -18.546875 112.515625 C-30.76140331 110.69173616 -41.85307164 111.3753594 -52.25 118.25 C-59.95348876 124.02460269 -64.03522243 130.28099799 -68 139 C-79.58571601 137.61177071 -88.7166831 129.67247003 -96 121 C-103.0362056 111.3010443 -106.21087854 101.11485219 -106.0625 89.1875 C-106.05798828 88.49462891 -106.05347656 87.80175781 -106.04882812 87.08789062 C-106.03713156 85.39188932 -106.01919924 83.69593297 -106 82 C-105.10539062 81.90203125 -104.21078125 81.8040625 -103.2890625 81.703125 C-90.04094735 80.06476534 -81.14054676 77.10014152 -72 67 C-69.93359062 64.12778984 -68.40601914 61.24070264 -67 58 C-66.52433594 57.04287109 -66.52433594 57.04287109 -66.0390625 56.06640625 C-62.7176366 48.25039026 -63.75787588 39.31292802 -64 31 C-55.26526749 26.37700957 -46.51900215 21.77734777 -37.73828125 17.2421875 C-37.11091568 16.91813431 -36.48355011 16.59408112 -35.83717346 16.26020813 C-32.72357939 14.6525734 -29.60903508 13.04680653 -26.4934082 11.44311523 C-24.73710083 10.53734741 -24.73710083 10.53734741 -22.9453125 9.61328125 C-21.7996582 9.02369629 -20.65400391 8.43411133 -19.47363281 7.82666016 C-17.07050282 6.56293942 -14.69623377 5.28094954 -12.33105469 3.95068359 C-11.73880096 3.62053757 -11.14654724 3.29039154 -10.53634644 2.95024109 C-8.89974805 2.03370504 -7.26972261 1.10546061 -5.64013672 0.17651367 C-3 -1 -3 -1 0 0 Z " fill="#98E4FA" transform="translate(167,319)"/>
<path d="M0 0 C11.51212068 0.49146998 22.74555515 1.6525654 34.125 3.4375 C36.27275906 3.76734313 38.42084864 4.0949521 40.56903076 4.42202759 C41.97485581 4.63628909 43.38049964 4.85174335 44.78594971 5.06845093 C50.85144523 5.9976298 56.93052988 6.79254462 63.01904297 7.55493164 C66 8 66 8 69 9 C69.05607422 10.79630859 69.05607422 10.79630859 69.11328125 12.62890625 C69.77952469 30.44447671 73.50809964 45.47677962 80 62 C68.88027293 67.86478021 57.75682036 73.72243704 46.59423828 79.50537109 C41.84995456 81.96753352 37.13244593 84.46381542 32.45703125 87.0546875 C31.58820313 87.53035156 30.719375 88.00601563 29.82421875 88.49609375 C28.18800053 89.39435974 26.55863055 90.30525115 24.9375 91.23046875 C24.21175781 91.62621094 23.48601562 92.02195312 22.73828125 92.4296875 C22.10962158 92.78272949 21.48096191 93.13577148 20.83325195 93.49951172 C19 94 19 94 16.86889648 93.18359375 C14.95757196 91.97312983 13.39958867 90.67048842 11.75 89.125 C3.21502328 81.66371971 -6.53053439 79.50736564 -17.671875 79.67578125 C-24.55312552 80.34613781 -30.61861567 82.66257937 -36 87 C-46.43118956 82.57321978 -51.82129494 70.86506791 -56 61 C-60.72707917 49.03458085 -57.93426427 34.8027928 -54 23 C-51.23723823 23.52268466 -48.6739124 24.10869587 -46 25 C-36.12149978 25.60683637 -26.80863236 26.11059391 -18 21 C-17.21238281 20.56429688 -16.42476562 20.12859375 -15.61328125 19.6796875 C-7.44766776 14.73982876 -3.655683 8.65631026 0 0 Z " fill="#98E4FA" transform="translate(78,243)"/>
<path d="M0 0 C5.15532345 0.97232034 10.23732334 2.25503316 15.32226562 3.5390625 C19.30623907 4.50531126 23.19761622 5.17638514 27.2824707 5.55859375 C28.61348564 5.68512329 28.61348564 5.68512329 29.97138977 5.81420898 C30.64083115 5.87552002 31.31027252 5.93683105 32 6 C32.11649476 16.82344627 32.20501754 27.64674032 32.25906086 38.47068882 C32.28501549 43.49818326 32.32015124 48.52524483 32.37719727 53.55249023 C32.43202633 58.41549291 32.46152644 63.27808255 32.47438622 68.14137077 C32.48353569 69.98511178 32.50139905 71.8288334 32.52865028 73.67239571 C32.77887136 91.32215911 29.70033005 106.99844278 17.109375 120.30053711 C13.29992732 124.18389749 9.56393722 127.42798192 4.875 130.1875 C1.80141769 132.03585751 1.80141769 132.03585751 0.22265625 135.13671875 C-0.1453477 137.5984054 -0.1453477 137.5984054 0 141 C-6.64558134 143.60900601 -12.88515313 144.6143354 -20 145 C-20.20625 144.05125 -20.4125 143.1025 -20.625 142.125 C-21.67754737 138.84176266 -21.67754737 138.84176266 -24.4375 137.75 C-26.45861732 137.32450162 -28.48527244 136.92037325 -30.5234375 136.5859375 C-36.89030162 135.53371066 -42.23911359 133.93022864 -48 131 C-47.72285156 130.40832031 -47.44570312 129.81664062 -47.16015625 129.20703125 C-46.79792969 128.41683594 -46.43570313 127.62664062 -46.0625 126.8125 C-45.70285156 126.03519531 -45.34320313 125.25789063 -44.97265625 124.45703125 C-41.4147454 115.46937695 -41.73318958 103.4278717 -44.87109375 94.34765625 C-46.64474382 90.65920057 -48.98115276 87.45901309 -51.4765625 84.2265625 C-53.88409962 80.70785441 -53.88409962 80.70785441 -54 78 C-52.734375 75.765625 -52.734375 75.765625 -50.75 73.25 C-50.00492188 72.27417969 -49.25984375 71.29835938 -48.4921875 70.29296875 C-48.08581055 69.7623584 -47.67943359 69.23174805 -47.26074219 68.68505859 C-45.03563196 65.71106348 -42.9633746 62.63328018 -40.875 59.5625 C-36.62519149 53.34524309 -32.3258913 47.16454224 -28 41 C-18.49612591 27.44478669 -9.14190516 13.80209543 0 0 Z " fill="#97E5FB" transform="translate(218,360)"/>
<path d="M0 0 C0.96421875 0.49371094 1.9284375 0.98742187 2.921875 1.49609375 C4.19780852 2.14344237 5.47385621 2.79056599 6.75 3.4375 C7.38421875 3.76298828 8.0184375 4.08847656 8.671875 4.42382812 C18.17953259 9.22717597 28.30700528 9.49901707 38.5 6.25 C41.78584843 5.03253425 44.60935231 3.75283941 47.4375 1.6875 C50 0 50 0 52.28515625 0.1171875 C55.74669384 1.24280979 58.21870944 3.17239523 61 5.4375 C62.15606244 6.35310145 63.31231784 7.26845931 64.46875 8.18359375 C65.05527344 8.65265137 65.64179687 9.12170898 66.24609375 9.60498047 C68.9704538 11.77187821 71.73574775 13.88440658 74.5 16 C75.58355748 16.83304186 76.66689026 17.66637607 77.75 18.5 C78.28625 18.9125 78.8225 19.325 79.375 19.75 C84.25 23.5 84.25 23.5 85.87670898 24.75146484 C86.95415192 25.58016738 88.03178698 26.40862018 89.10961914 27.23681641 C91.90974722 29.38893543 94.70585715 31.54600524 97.49609375 33.7109375 C98.07230469 34.15695313 98.64851563 34.60296875 99.2421875 35.0625 C100.83825671 36.29816649 102.43284965 37.53573917 104.02734375 38.7734375 C106.95857791 40.96897426 109.93459593 42.99903579 113 45 C111.51356408 49.08769878 109.50227111 52.59799862 107.25 56.3125 C101.15645688 66.6957416 96.66975638 78.02381634 95 90 C91.68643948 91.06672718 89.24659412 90.91894958 85.828125 90.36328125 C84.7860791 90.19997314 83.7440332 90.03666504 82.67041016 89.8684082 C81.5416748 89.6849585 80.41293945 89.50150879 79.25 89.3125 C67.00752334 87.40177091 54.7500361 85.79414968 42.45019531 84.30786133 C41.15952148 84.1508374 39.86884766 83.99381348 38.5390625 83.83203125 C37.39646973 83.69514893 36.25387695 83.5582666 35.07666016 83.41723633 C32.35201005 83.04773728 29.68761359 82.57573791 27 82 C26.79697266 80.78376953 26.79697266 80.78376953 26.58984375 79.54296875 C24.55556573 69.07922733 20.54502593 59.98973117 11.96484375 53.27734375 C6.21588357 49.53994817 -0.07304231 46.04878725 -7.01171875 45.68359375 C-8.14770508 45.62075195 -8.14770508 45.62075195 -9.30664062 45.55664062 C-10.09232422 45.51732422 -10.87800781 45.47800781 -11.6875 45.4375 C-12.88342773 45.37272461 -12.88342773 45.37272461 -14.10351562 45.30664062 C-16.06881447 45.20072632 -18.03438496 45.09987449 -20 45 C-21.1428154 31.67249395 -16.23467962 18.40258508 -8 8 C-5.44955263 5.1945079 -2.80871715 2.54608386 0 0 Z " fill="#98E4FA" transform="translate(54,146)"/>
<path d="M0 0 C0.21914062 0.7734375 0.43828125 1.546875 0.6640625 2.34375 C3.9628331 13.17873637 9.17529516 21.32608279 19.046875 27.22265625 C24.21966214 29.93545252 28.41366278 31.20419593 34.29296875 30.6484375 C39.36134455 30.27633282 44.20512025 30.10370788 49 32 C53.59850769 36.15375167 55.59140919 42.44680706 57.81347656 48.08154297 C59.46045881 52.13257707 61.37591241 56.03323434 63.29614258 59.96044922 C64.82674537 63.09164212 66.32324822 66.23752148 67.81640625 69.38671875 C70.04064592 74.04312984 72.32270856 78.66535321 74.65234375 83.26953125 C74.95400955 83.86671463 75.25567535 84.46389801 75.56648254 85.07917786 C77.03207373 87.97766632 78.50501622 90.87209709 79.98754883 93.76196289 C80.51243896 94.79699951 81.0373291 95.83203613 81.578125 96.8984375 C82.04637695 97.81286621 82.51462891 98.72729492 82.99707031 99.66943359 C84 102 84 102 84 105 C83.42894531 105.25652344 82.85789062 105.51304687 82.26953125 105.77734375 C69.93566688 111.60112391 59.76896323 119.62257838 50 129 C47.19403842 127.68227683 44.7982135 126.20727748 42.34765625 124.3125 C41.66026367 123.78374268 40.97287109 123.25498535 40.26464844 122.71020508 C39.53793945 122.1458374 38.81123047 121.58146973 38.0625 121 C37.30614258 120.41694092 36.54978516 119.83388184 35.77050781 119.2331543 C34.23346884 118.0479344 32.69749016 116.86133815 31.16259766 115.67333984 C28.72063056 113.78383403 26.27285578 111.90201322 23.82397461 110.02148438 C21.21407782 108.01679865 18.60738618 106.00794941 16 104 C14.37725662 102.7513946 12.75432636 101.50303554 11.13085938 100.25537109 C10.05267678 99.42542874 8.97582787 98.5937506 7.90039062 97.76025391 C5.07225217 95.57197747 2.22224276 93.42466512 -0.671875 91.32421875 C-1.27064453 90.88271484 -1.86941406 90.44121094 -2.48632812 89.98632812 C-3.63311304 89.1417966 -4.78775631 88.30779836 -5.95117188 87.48632812 C-8.34577246 85.70756739 -9.84917032 84.37049036 -10.984375 81.58203125 C-11.00374519 78.38110665 -10.03234362 76.02672788 -9 73 C-7.98535332 62.38359162 -8.61787336 53.45819055 -14 44 C-14.41121094 43.26394531 -14.82242188 42.52789062 -15.24609375 41.76953125 C-19.36581604 35.44936382 -25.67713179 31.84692306 -32 28 C-30.08563704 21.03131366 -25.96863795 17.05117347 -21 12 C-20.43023437 11.41734375 -19.86046875 10.8346875 -19.2734375 10.234375 C-14.57545713 5.83725052 -6.57211102 0 0 0 Z " fill="#97E4FA" transform="translate(127,51)"/>
<path d="M0 0 C8.35363326 5.35052177 14.52320748 12.71283472 17.41979599 22.29685974 C19.21387843 30.48737404 18.46539713 39.3131224 18.36328125 47.640625 C18.3539413 49.88791106 18.34683078 52.13520739 18.34184265 54.38250732 C18.32286611 60.26154304 18.27384626 66.13994882 18.21832275 72.01873779 C18.16692789 78.03193646 18.14428555 84.04523816 18.11914062 90.05859375 C18.06571814 101.83100403 17.98051949 113.60294938 17.875 125.375 C16.57304687 125.57996094 15.27109375 125.78492188 13.9296875 125.99609375 C12.20312282 126.26821536 10.47656044 126.54035154 8.75 126.8125 C7.46609375 127.01456055 7.46609375 127.01456055 6.15625 127.22070312 C1.72575045 127.91935882 -2.70229031 128.62821459 -7.125 129.375 C-13.13808248 117.46308536 -19.05791725 105.51608785 -24.76000977 93.4519043 C-27.41611564 87.8606759 -30.15159631 82.3179708 -32.96484375 76.8046875 C-33.28983353 76.16534271 -33.6148233 75.52599792 -33.94966125 74.86727905 C-35.55278659 71.71370518 -37.16509873 68.5655331 -38.79418945 65.42529297 C-39.37257568 64.28979004 -39.95096191 63.15428711 -40.546875 61.984375 C-41.06862305 60.97342773 -41.59037109 59.96248047 -42.12792969 58.92089844 C-43.125 56.375 -43.125 56.375 -42.125 53.375 C-41.3825 52.818125 -40.64 52.26125 -39.875 51.6875 C-33.9417307 46.69815991 -29.86030342 38.83403492 -28.82226562 31.12744141 C-28.68797776 28.76387473 -28.65800988 26.42962136 -28.6875 24.0625 C-28.69289795 23.23161865 -28.6982959 22.4007373 -28.70385742 21.54467773 C-28.88768392 14.08771605 -30.16779628 7.27794429 -34.76171875 1.21484375 C-36.125 -0.625 -36.125 -0.625 -36.125 -2.625 C-24.03365817 -8.31504322 -11.42387443 -6.25965722 0 0 Z " fill="#97E4FA" transform="translate(232.125,20.625)"/>
<path d="M0 0 C13.35749191 0.6678746 23.00459674 6.65533193 32.6875 15.4375 C43.06555786 26.93751007 48.41826431 39.18344795 48.203125 54.69140625 C47.95718505 58.69738974 47.24949642 62.50069677 46.46484375 66.4296875 C46.01303427 68.92792815 45.70052783 71.34030711 45.5625 73.875 C45.52253906 74.55304688 45.48257813 75.23109375 45.44140625 75.9296875 C46.37337088 79.38382214 48.22997918 80.80048865 51 83 C53.8309745 84.12311377 56.71979909 84.77431974 59.6875 85.4375 C74.47403818 89.1756032 86.00535065 97.45728459 94.46875 110.33203125 C102.30008438 123.97693273 105.77643782 139.58974509 101.61230469 155.02709961 C99.3562401 162.52662532 96.10444982 168.66268704 91.57421875 175.03515625 C89.6242438 178.70768971 89.42825431 180.89467851 90 185 C91.59872414 187.54660744 91.59872414 187.54660744 93.9375 189.6875 C107.32981397 203.62729851 116.88606708 219.45849563 117.3125 239.25 C117.0940439 246.48754543 115.69512333 252.50194847 112.8125 259.125 C110.99114047 263.48542951 110.69596452 266.34273044 112 271 C112.64554372 272.34368729 113.30829921 273.67948031 114 275 C105.92255125 285.74259681 105.92255125 285.74259681 100 289 C99.46375 288.505 98.9275 288.01 98.375 287.5 C95.27826471 285.54416718 93.62980116 285.63878192 90 286 C87.0409721 287.51851448 87.0409721 287.51851448 84.125 289.625 C76.89504773 294.42849823 69.18240594 297.22701519 61 300 C60.67 299.34 60.34 298.68 60 298 C61.35931641 297.1646875 61.35931641 297.1646875 62.74609375 296.3125 C78.57310033 286.46226231 90.54661673 274.97728198 97 257 C101.36140206 237.98026291 97.36426898 218.24452555 87.22851562 201.83300781 C83.2423663 195.88547022 78.42513072 190.1757636 73.17578125 185.30859375 C72 184 72 184 72 181.3125 C72.87049786 178.42897585 73.62775192 176.87087213 75.25 174.4375 C84.93382332 159.88361437 86.02613427 142.36997606 82.9375 125.5625 C78.76709212 108.97830791 67.70179284 95.10995008 53.22265625 86.3125 C46.38075574 82.63899637 39.56540863 80.61034066 32.0546875 78.859375 C29 78 29 78 27 76 C27.28766354 72.49050486 27.71823537 69.19176003 28.52734375 65.76953125 C31.34406022 49.26496948 28.23345082 32.94545574 19 19 C13.97977718 12.51934873 8.71716176 7.26069812 1.6171875 3.12109375 C1.08351563 2.75113281 0.54984375 2.38117187 0 2 C0 1.34 0 0.68 0 0 Z " fill="#FA7E85" transform="translate(378,49)"/>
<path d="M0 0 C3.84930297 0.54990042 5.46411587 1.10103535 8.5 3.5 C9.9001331 6.23375608 10.98920963 8.76504226 12.03125 11.6328125 C12.36056519 12.49649445 12.68988037 13.36017639 13.0291748 14.25003052 C13.77788487 16.21904322 14.51894614 18.19097486 15.25390625 20.16516113 C16.61171594 23.79897802 17.99857925 27.42120445 19.390625 31.04199219 C21.79623843 37.30787891 24.17763 43.58258639 26.54382324 49.86346054 C27.91843697 53.51201974 29.29701592 57.15895757 30.68554688 60.80224609 C32.05219502 64.38817464 33.4091426 67.9776297 34.75914001 71.56985855 C35.26931801 72.92264793 35.78282028 74.2741888 36.29981995 75.62438583 C37.01710633 77.49980965 37.72076066 79.38043001 38.42382812 81.26123047 C38.82605591 82.32453583 39.22828369 83.38784119 39.6427002 84.48336792 C40.54953678 87.67430802 40.77203762 90.20024787 40.5 93.5 C38.9375 95.875 38.9375 95.875 36.5 97.5 C33 98.0625 33 98.0625 29.5 97.5 C26.10292266 93.98622916 24.43108001 90.36283077 22.75 85.8125 C22.32203125 84.67425781 21.8940625 83.53601563 21.453125 82.36328125 C20.5 79.5 20.5 79.5 20.5 77.5 C7.3 77.5 -5.9 77.5 -19.5 77.5 C-20.49 80.8 -21.48 84.1 -22.5 87.5 C-25.88461538 94.88461538 -25.88461538 94.88461538 -28.5 97.5 C-32.30811922 97.92312436 -34.64399717 97.99220163 -38 96.0625 C-40.2625448 92.1973193 -39.37129412 88.7123557 -38.5 84.5 C-37.15754826 80.1442354 -35.52667617 75.91706051 -33.87109375 71.671875 C-33.4031691 70.44704407 -32.93524445 69.22221313 -32.45314026 67.96026611 C-31.21119333 64.70968829 -29.95667792 61.4641091 -28.69927979 58.21948242 C-27.45026806 54.99032527 -26.21276102 51.75677079 -24.97460938 48.5234375 C-23.52504313 44.73890417 -22.07308606 40.95538213 -20.60848999 37.17663574 C-18.41521135 31.51278877 -16.24645405 25.84489061 -14.17626953 20.13476562 C-13.64441795 18.68375458 -13.64441795 18.68375458 -13.1018219 17.20343018 C-12.45690227 15.43706244 -11.82260626 13.66675928 -11.20176697 11.89178467 C-9.04232778 6.01496725 -6.75446462 0.96492352 0 0 Z " fill="#030303" transform="translate(237.5,207.5)"/>
<path d="M0 0 C23.06986548 4.70813581 43.5639907 18.57618311 56.98828125 37.85546875 C71.57333284 60.40599108 76.13164643 86.72907193 72 113.1875 C66.42644948 139.00460665 49.6626774 160.99924254 27.75 175.1875 C19.5942644 180.0653323 10.43639639 184.44513923 1 186 C1 185.34 1 184.68 1 184 C3.09950714 182.5690679 5.19994436 181.24415032 7.375 179.9375 C13.894493 175.88526521 19.48122364 171.35446953 25 166 C26.02673828 165.08347656 26.02673828 165.08347656 27.07421875 164.1484375 C44.12332059 148.40565191 54.40449174 122.26481468 55.3359375 99.34375 C55.83179582 67.39475845 46.04046106 41.81453078 23.9375 18.5 C18.53804078 13.16869664 12.59120433 9.12699434 6.1875 5.09375 C3.76315254 3.50128647 1.88478016 2.16195371 0 0 Z " fill="#DCF3FA" transform="translate(280,163)"/>
<path d="M0 0 C5.61 0.66 11.22 1.32 17 2 C17.11352756 12.82354289 17.20501725 23.64668223 17.25906086 34.47068882 C17.28501549 39.49818326 17.32015124 44.52524483 17.37719727 49.55249023 C17.43202633 54.41549291 17.46152644 59.27808255 17.47438622 64.14137077 C17.48353569 65.98511178 17.50139905 67.8288334 17.52865028 69.67239571 C17.77887136 87.32215911 14.70033005 102.99844278 2.109375 116.30053711 C-1.70007268 120.18389749 -5.43606278 123.42798192 -10.125 126.1875 C-13.19858231 128.03585751 -13.19858231 128.03585751 -14.77734375 131.13671875 C-15.1453477 133.5984054 -15.1453477 133.5984054 -15 137 C-21.64558134 139.60900601 -27.88515313 140.6143354 -35 141 C-35.33 138.69 -35.66 136.38 -36 134 C-35.39414063 133.67128906 -34.78828125 133.34257812 -34.1640625 133.00390625 C-17.42843884 123.50322143 -7.79883935 110.36287568 -2.46069336 92.02001953 C-0.2845612 83.17852222 -0.51893412 74.28379446 -0.48828125 65.234375 C-0.47140531 63.3457932 -0.45325122 61.45722244 -0.43388367 59.56866455 C-0.38669383 54.63689625 -0.35668487 49.7051727 -0.33044434 44.77325439 C-0.30048103 39.7250485 -0.2540055 34.67699634 -0.20898438 29.62890625 C-0.12330468 19.7526676 -0.05733279 9.87644392 0 0 Z " fill="#61D9F9" transform="translate(233,364)"/>
<path d="M0 0 C11.01210865 0.81571175 20.314676 4.94263026 27.91015625 13.03515625 C34.81437169 21.34660032 37.62413451 29.66554991 37.45410156 40.40673828 C37.45468567 41.39330917 37.45526978 42.37988007 37.45587158 43.39634705 C37.4531095 46.6213741 37.42210645 49.84544913 37.390625 53.0703125 C37.38315594 55.32045995 37.37746615 57.57061395 37.37347412 59.82077026 C37.35827026 65.71616877 37.31903368 71.61116722 37.2746582 77.50640869 C37.23359207 83.53286326 37.21543893 89.55938306 37.1953125 95.5859375 C37.15253435 107.39079986 37.08434682 119.19536654 37 131 C28.585 131.99 28.585 131.99 20 133 C19.99413376 131.77161911 19.98826752 130.54323822 19.98222351 129.27763367 C19.92487267 117.66989478 19.85204666 106.06234101 19.76428509 94.45479107 C19.71966347 88.48802239 19.68038924 82.5213207 19.65356445 76.55444336 C19.62744965 70.79010571 19.58698944 65.026027 19.53681374 59.26185036 C19.52020024 57.06880744 19.50865177 54.8757198 19.50238609 52.68262291 C19.49268487 49.59763167 19.46455387 46.5132947 19.43237305 43.4284668 C19.43452568 42.08517807 19.43452568 42.08517807 19.4367218 40.7147522 C19.20197354 24.67805223 12.49570984 12.71354855 1.5625 1.5 C1.046875 1.005 0.53125 0.51 0 0 Z " fill="#61D9F9" transform="translate(213,15)"/>
<path d="M0 0 C5.81082156 3.72769685 8.80218506 8.55683312 11 15 C12.31352949 23.1042291 10.28043392 30.40658897 5.9375 37.25 C0.60076415 42.91929209 -5.95421312 45.30443408 -13.625 45.5625 C-20.81056828 45.25817005 -25.14193605 43.25986452 -30.6875 38.875 C-35.87590989 32.42454446 -38.92835768 26.14404939 -38.4765625 17.73828125 C-37.31240549 11.04914959 -34.46884977 5.78351752 -29.125 1.5625 C-18.79598934 -5.26547896 -10.83000452 -5.51511154 0 0 Z " fill="#6DD4A1" transform="translate(55,209)"/>
<path d="M0 0 C4.59473918 2.58180582 7.73420463 5.60015201 10.6875 9.9375 C11.615625 11.29875 11.615625 11.29875 12.5625 12.6875 C15.13543204 20.12041477 14.28115156 27.53411898 11.08203125 34.64453125 C7.37436073 40.74089706 1.49987414 44.97461254 -5.3125 46.9375 C-13.37592292 48.0449763 -19.62476057 46.59545185 -26.3125 41.9375 C-31.33938678 37.47269128 -34.72707569 32.15905975 -35.6640625 25.40234375 C-36.08901775 17.45120732 -33.9882937 11.07604208 -28.66796875 5.0859375 C-20.43834973 -2.45633185 -10.28550545 -4.69353637 0 0 Z " fill="#6DD5A1" transform="translate(75.3125,339.0625)"/>
<path d="M0 0 C5.91123073 3.32271409 10.05493072 7.75725878 13.1875 13.75 C14.63341053 22.1041497 14.6337591 29.29370209 10.37109375 36.8046875 C6.51467801 42.02711074 1.14562975 45.74595495 -5.25 47 C-13.36733411 47.93908937 -19.50163056 46.70376714 -26.25 42 C-31.4507995 37.36988864 -33.79698065 32.67642624 -34.65625 25.703125 C-34.88411706 17.31002167 -33.99334925 11.36204337 -28.25 5 C-19.81899029 -2.01150297 -10.3826306 -4.73816833 0 0 Z " fill="#6DD5A1" transform="translate(90.25,93)"/>
<path d="M0 0 C7.26325917 2.84759902 11.57006188 8.16361785 15.32421875 14.82421875 C17.82295644 23.20233925 16.27695269 29.67402497 12.38671875 37.38671875 C9.33017753 42.48095411 4.968139 45.50568762 -0.61328125 47.38671875 C-7.86841429 48.28971814 -15.55346582 48.6779961 -21.97265625 44.71484375 C-27.98074679 39.85115141 -31.9962695 34.14207192 -33 26.40625 C-33.42747312 18.30325956 -32.06959153 12.51815059 -26.61328125 6.38671875 C-18.37607113 -0.37414048 -10.62577135 -2.49364141 0 0 Z " fill="#6DD5A1" transform="translate(173.61328125,20.61328125)"/>
<path d="M0 0 C5.82372383 3.34272278 9.03410915 7.87374598 11.9375 13.8125 C13.56655348 22.12067275 13.37979827 29.80797723 8.5625 37 C2.72513536 43.77292421 -3.66527264 46.39400288 -12.375 47.5 C-18.8091444 47.22976594 -24.42520059 43.61858866 -29.3125 39.6875 C-34.94826329 32.55991701 -36.22024611 26.85225296 -35.9453125 17.6328125 C-34.91042652 10.22939738 -30.96809614 5.99203486 -25.25 1.5 C-17.95288083 -3.68138639 -8.04474965 -3.64336686 0 0 Z " fill="#6DD5A1" transform="translate(148.4375,447)"/>
<path d="M0 0 C-0.99 1.485 -0.99 1.485 -2 3 C-3.03886427 6.54887191 -2.91833987 9.42404022 -2 13 C0.63286693 17.51593342 4.21197751 21.41393252 7.61083984 25.36181641 C17.44946685 36.96413402 22.48274831 47.75866874 21.23925781 62.99316406 C19.6899588 75.98830474 12.05696753 88.79095583 2 97 C-5.52066521 102.70615551 -13.82054491 106.75483391 -23 109 C-25.41015625 108.625 -25.41015625 108.625 -27 108 C-26.030625 107.505 -25.06125 107.01 -24.0625 106.5 C-10.52937183 98.65351963 -1.72028549 84.70491284 2.3125 69.75 C5.22161251 53.9899536 1.6249847 42.41793008 -6.7734375 29.22265625 C-9.64238344 25.07023449 -12.75294985 21.18458115 -16.01953125 17.33984375 C-16.67308594 16.56769531 -17.32664062 15.79554688 -18 15 C-18.60199219 14.34128906 -19.20398438 13.68257813 -19.82421875 13.00390625 C-21 11 -21 11 -20.9765625 8.3828125 C-20 6 -20 6 -17.9609375 4.7421875 C-17.10757812 4.45601563 -16.25421875 4.16984375 -15.375 3.875 C-14.47394531 3.55917969 -13.57289063 3.24335938 -12.64453125 2.91796875 C-11.77183594 2.61503906 -10.89914062 2.31210937 -10 2 C-8.68197436 1.40798479 -7.36851898 0.80555181 -6.0625 0.1875 C-3 -1 -3 -1 0 0 Z " fill="#FA7E85" transform="translate(433,352)"/>
<path d="M0 0 C2.30275556 1.8670991 3.67823871 3.35647741 5 6 C5.66305235 13.67401578 5.92746227 20.7479511 1 27 C-4.25150681 32.79766352 -9.34985492 36.26379686 -17 38 C-17.16435547 39.05574219 -17.16435547 39.05574219 -17.33203125 40.1328125 C-19.08532074 47.65862819 -23.60428164 57.30240041 -30 62 C-33.625 62.75 -33.625 62.75 -37 62 C-39.5 59.9375 -39.5 59.9375 -41 57 C-41.2298019 51.14005146 -38.55858987 47.17611121 -35.47265625 42.4296875 C-31.99587047 36.69345207 -31.13847731 31.62627948 -32 25 C-33.83030823 21.33938355 -35.37842807 19.44811 -38.6875 17.0625 C-41 15 -41 15 -42.125 11.5625 C-42 8 -42 8 -40 5 C-37 3 -37 3 -33.6875 2.75 C-24.72680059 5.78752522 -20.27293914 12.95586836 -16 21 C-13.72129219 19.34793684 -12.42308803 18.37350754 -11 16 C-10.79138 13.34666594 -10.79138 13.34666594 -11 10.5 C-11.23611111 5.35416667 -11.23611111 5.35416667 -8.875 1.8125 C-5.48733474 -0.32320201 -3.92646445 -0.75187617 0 0 Z " fill="#040203" transform="translate(437,186)"/>
<path d="M0 0 C2.18640137 1.50294495 2.18640137 1.50294495 4 4 C4.3945782 6.94277721 4.54733006 9.51099167 4.51757812 12.45288086 C4.52809204 13.72918114 4.52809204 13.72918114 4.53881836 15.03126526 C4.5564175 17.84279051 4.54476791 20.65330833 4.53125 23.46484375 C4.53394462 25.42013238 4.53782678 27.3754197 4.54284668 29.33070374 C4.54874453 33.42885088 4.5401704 37.52664926 4.52148438 41.62475586 C4.49870981 46.87520882 4.5118067 52.12484324 4.53577423 57.37526608 C4.55023727 61.41335706 4.54562362 65.45125442 4.53526306 69.48935127 C4.5325964 71.42502502 4.53586342 73.3607164 4.54518127 75.29636955 C4.55535347 78.00396048 4.53983609 80.71023183 4.51757812 83.41772461 C4.52567505 84.21632904 4.53377197 85.01493347 4.54211426 85.83773804 C4.48574157 89.54386488 4.12100444 91.80001628 2.18640137 94.99732971 C0 97 0 97 -3.5 97.625 C-7 97 -7 97 -9.18640137 94.99732971 C-11.53270417 91.11960121 -11.56218189 87.81702104 -11.51757812 83.41772461 C-11.5245874 82.56510544 -11.53159668 81.71248627 -11.53881836 80.83403015 C-11.55638606 78.02313418 -11.54478115 75.21324948 -11.53125 72.40234375 C-11.53394502 70.44608874 -11.53782752 68.48983503 -11.54284668 66.53358459 C-11.54873985 62.43721745 -11.5401836 58.34119956 -11.52148438 54.24487305 C-11.49867991 48.99322986 -11.51182859 43.74240368 -11.53577423 38.49079037 C-11.55022418 34.45274186 -11.54563016 30.41488729 -11.53526306 26.37683296 C-11.53259434 24.4403327 -11.53587064 22.50381485 -11.54518127 20.56733513 C-11.5553353 17.86204202 -11.53986299 15.15807512 -11.51757812 12.45288086 C-11.52567505 11.6522522 -11.53377197 10.85162354 -11.54211426 10.0267334 C-11.48816052 6.49312503 -11.29006013 4.39936957 -9.18640137 1.50294495 C-5.97567022 -0.70413022 -3.80111504 -0.54301643 0 0 Z " fill="#020202" transform="translate(301,207)"/>
<path d="M0 0 C2.4375 1.625 2.4375 1.625 4 4 C4.5625 6.9375 4.5625 6.9375 4 10 C1.875 12.4375 1.875 12.4375 -1 15 C-2.08222897 16.16954818 -3.14439308 17.35792935 -4.1875 18.5625 C-4.67605469 19.12066406 -5.16460937 19.67882812 -5.66796875 20.25390625 C-10.23579546 26.24164391 -9.65587692 32.73134049 -9 40 C-8.17514965 42.97841891 -7.14321446 45.74048727 -5.97265625 48.59765625 C-4.62746755 51.92011027 -4 54.40128356 -4 58 C-5.5 60.9375 -5.5 60.9375 -8 63 C-11.5 63.5625 -11.5 63.5625 -15 63 C-18.74270397 60.03435267 -20.08834937 56.87173786 -21.6875 52.4375 C-22.10386719 51.30183594 -22.52023437 50.16617188 -22.94921875 48.99609375 C-26.0871523 40.04890032 -27.16074734 27.59786944 -23.25 18.6875 C-22.54066589 17.43442546 -21.79427513 16.20103194 -21 15 C-20.401875 13.96875 -19.80375 12.9375 -19.1875 11.875 C-14.01393721 5.07546033 -9.11942063 -0.95993901 0 0 Z " fill="#040203" transform="translate(388,333)"/>
<path d="M0 0 C1.6640625 1.02734375 1.6640625 1.02734375 3 3 C3.34721431 6.55620556 3.43637523 10.00889293 3.43945312 13.57617188 C3.57327005 18.83194689 4.4967263 21.84253731 8 26 C10.08935907 27.82596983 10.08935907 27.82596983 12.375 29.1875 C13.54869141 29.93 13.54869141 29.93 14.74609375 30.6875 C16.59933136 31.7666817 18.51240105 32.74245142 20.4375 33.6875 C23 35 23 35 25 38 C24.78206897 44.10206897 24.78206897 44.10206897 22.3125 46.9375 C19.29301918 48.32482903 17.31577248 48.25873375 14 48 C3.38695077 43.78638244 -5.47171406 37.35735603 -10.30859375 26.859375 C-12.0094249 22.2853884 -12.24609751 17.91873515 -12.3125 13.0625 C-12.34150391 12.35931641 -12.37050781 11.65613281 -12.40039062 10.93164062 C-12.44552788 7.22691375 -12.12948531 5.20103596 -10.10546875 2.05859375 C-6.5544115 -1.41340471 -4.74927784 -1.16308845 0 0 Z " fill="#050303" transform="translate(393,115)"/>
<path d="M0 0 C2.86962664 1.97685391 4.63438929 3.51415808 5.48828125 6.984375 C5.88998444 13.45753499 3.6174824 18.72632084 0 24 C-7.26550746 31.95177716 -15.52470365 35.27719781 -26.0703125 36.296875 C-31.04329681 36.51681042 -34.01008426 36.6472526 -38.25 33.875 C-40.31228623 30.48695834 -40.74523902 28.89180376 -40 25 C-37.64887967 21.7783137 -36.36598544 21.06614672 -32.390625 20.34765625 C-31.01112733 20.24279382 -29.63082468 20.14813377 -28.25 20.0625 C-20.36636777 19.28727073 -20.36636777 19.28727073 -13.40234375 15.76171875 C-10.98980458 12.73092441 -10.40411244 9.28227488 -9.765625 5.5234375 C-8.32336466 0.76986517 -4.75782597 -0.92835629 0 0 Z " fill="#060404" transform="translate(420,396)"/>
<path d="M0 0 C8.17751187 -0.69959702 14.18980699 0.2448126 21 5 C23.35602445 7.13732176 25.21252509 9.37483058 27 12 C27.61875 12.9075 28.2375 13.815 28.875 14.75 C31.44793204 22.18291477 30.59365156 29.59661898 27.39453125 36.70703125 C23.61514259 42.92132017 17.82663564 46.81032442 11 49 C9.33383458 49.04087274 7.66596817 49.0482478 6 49 C6.48210937 48.27554688 6.96421875 47.55109375 7.4609375 46.8046875 C8.09257813 45.83789062 8.72421875 44.87109375 9.375 43.875 C10.00148438 42.92367187 10.62796875 41.97234375 11.2734375 40.9921875 C15.72392318 33.27935485 16.15323038 24.69764593 15 16 C13.79579455 12.29475246 12.20322057 9.20242764 10 6 C9.525625 5.2678125 9.05125 4.535625 8.5625 3.78125 C6.15361582 1.03512204 3.50479676 1.26451296 0 1 C0 0.67 0 0.34 0 0 Z " fill="#3DBFA0" transform="translate(59,337)"/>
<path d="M0 0 C8.23905218 -0.61030016 14.3943 1.68690943 21.3125 6.125 C26.1259665 11.27428974 29.25494595 16.91137726 29.5 24.0625 C29.1056209 30.85221579 27.36606328 37.53052832 22.6484375 42.6484375 C18.16972021 46.32056116 13.14378254 48.81519116 7.375 49.3125 C6.59125 49.209375 5.8075 49.10625 5 49 C5.39832031 48.50371094 5.79664063 48.00742188 6.20703125 47.49609375 C7.00173828 46.47708984 7.00173828 46.47708984 7.8125 45.4375 C8.33457031 44.77621094 8.85664062 44.11492187 9.39453125 43.43359375 C13.39595756 37.36817139 14.55760203 32.33773089 14.5 25.1875 C14.49645508 24.39649902 14.49291016 23.60549805 14.48925781 22.79052734 C14.26599019 14.90335575 11.8168557 9.60909636 7 3.4375 C4.66906369 1.76213953 2.83313078 1.31479231 0 1 C0 0.67 0 0.34 0 0 Z " fill="#3DBEA0" transform="translate(37,205)"/>
<path d="M0 0 C7.48828095 0.2377232 12.38169421 1.93699188 18 7 C23.73636615 14.11582563 24.84255363 21.00055033 24 30 C22.22307695 37.16428211 18.12213852 42.00164759 12 46 C6.34651631 48.7724763 1.22919077 49.33977404 -5 49 C-5 48.67 -5 48.34 -5 48 C-3.453125 47.814375 -3.453125 47.814375 -1.875 47.625 C1.96389166 46.55042181 3.27604367 44.59883929 5.3125 41.25 C9.83157856 32.79028493 11.72553923 24.82372331 9.3125 15.28125 C7.15794338 9.46394713 3.96882709 4.73613366 0 0 Z " fill="#3DBFA0" transform="translate(137,445)"/>
<path d="M0 0 C8.17439462 -0.69933034 14.21251208 0.20951108 21 5 C26.39736759 9.86762596 29.51518708 14.3673432 30.28125 21.6875 C30.66332405 29.17615143 29.49866504 34.90783192 25 41 C20.34237899 45.6098015 15.03460232 48.9411007 8.32421875 49.0390625 C7.17373047 49.01972656 7.17373047 49.01972656 6 49 C6.38671875 48.53851563 6.7734375 48.07703125 7.171875 47.6015625 C13.75066739 39.36178788 16.75035637 31.82939841 16.38671875 21.18359375 C15.48461902 13.75721718 12.56756269 7.04964988 7 2 C3.32075016 1.03161858 3.32075016 1.03161858 0 1 C0 0.67 0 0.34 0 0 Z " fill="#3DBFA0" transform="translate(74,91)"/>
<path d="M0 0 C7.67852634 0.53884395 13.01356114 2.57305346 18.25 8.3125 C22.46789299 13.6243385 24.59952195 18.79903149 24.35546875 25.59765625 C23.41366299 31.96260726 20.7003482 38.55372467 16 43 C10.66959812 46.7333554 6.53036017 48.69471917 0 48 C0.48210937 47.26394531 0.96421875 46.52789062 1.4609375 45.76953125 C2.09257812 44.79371094 2.72421875 43.81789062 3.375 42.8125 C4.31472656 41.36810547 4.31472656 41.36810547 5.2734375 39.89453125 C9.88519389 32.16305731 10.11323192 24.22100193 8.53515625 15.40234375 C6.8083222 9.60876442 3.54054174 4.84676103 0 0 Z " fill="#3DBFA0" transform="translate(166,20)"/>
<path d="M0 0 C0.66 0 1.32 0 2 0 C3.85564602 4.80387577 5.70694675 9.60939427 7.55419922 14.41650391 C8.1835333 16.05238264 8.81406291 17.68780196 9.44580078 19.32275391 C10.3524162 21.66970655 11.25475215 24.01826518 12.15625 26.3671875 C12.44060913 27.10057343 12.72496826 27.83395935 13.01794434 28.58956909 C15 33.77225659 15 33.77225659 15 36 C5.76 36 -3.48 36 -13 36 C-11.23073156 30.69219468 -9.46672327 25.44950281 -7.51953125 20.21484375 C-7.07802734 19.02568359 -6.63652344 17.83652344 -6.18164062 16.61132812 C-5.50391602 14.7927832 -5.50391602 14.7927832 -4.8125 12.9375 C-4.34426317 11.67778561 -3.87616323 10.41802034 -3.40820312 9.15820312 C-2.27347567 6.10496739 -1.13737551 3.05225007 0 0 Z " fill="#EBF4F7" transform="translate(237,234)"/>
</svg>
