<?xml version="1.0" encoding="UTF-8"?>
<svg version="1.1" xmlns="http://www.w3.org/2000/svg" width="512" height="512">
<path d="M0 0 C1.26582983 -0.00382555 2.53165966 -0.00765109 3.83584797 -0.01159257 C7.32879651 -0.02183331 10.82164196 -0.01970083 14.3145988 -0.01541197 C18.08974854 -0.01293759 21.86487392 -0.02196773 25.64001465 -0.02944946 C33.02796076 -0.04217868 40.41587049 -0.04399238 47.80382572 -0.0416492 C53.81086275 -0.03986391 59.81788876 -0.0416202 65.82492447 -0.04587364 C66.68089109 -0.04646883 67.53685772 -0.04706402 68.41876272 -0.04767724 C70.15783587 -0.04888904 71.89690902 -0.05010317 73.63598217 -0.05131962 C89.93370328 -0.06218828 106.23140368 -0.06003584 122.52912594 -0.05393478 C137.42649214 -0.04876606 152.32379295 -0.06002105 167.22114621 -0.07903299 C182.53202846 -0.09842231 197.84287978 -0.10666548 213.15377438 -0.10290974 C221.74395534 -0.10099938 230.33408064 -0.1034692 238.92425156 -0.11762428 C246.23708719 -0.12955298 253.5498329 -0.13092628 260.86266981 -0.11883412 C264.59064409 -0.1129559 268.31845402 -0.11181654 272.04641724 -0.12383652 C276.09503916 -0.13673825 280.14327193 -0.12620585 284.19189453 -0.11352539 C285.35990817 -0.12089968 286.52792181 -0.12827396 287.7313298 -0.13587171 C303.08669417 -0.03492416 318.08377428 5.42368689 329.22293091 16.26069641 C342.69936201 31.70658953 346.69940629 47.94652088 346.61061096 68.06668091 C346.61479256 69.62567597 346.62027457 71.18466797 346.62693077 72.74365443 C346.64129598 76.99324961 346.63716882 81.24264938 346.62976396 85.49225485 C346.6250123 90.08884886 346.63755977 94.6854018 346.64778137 99.28198242 C346.66493603 108.27396265 346.66581627 117.26587289 346.66056847 126.25786523 C346.65651911 133.57054495 346.65797941 140.88320406 346.66331673 148.1958828 C346.66406515 149.23858841 346.66481357 150.28129402 346.66558467 151.35559678 C346.66711623 153.47419114 346.66865458 155.5927855 346.67019964 157.71137985 C346.68391277 177.55831481 346.67849547 197.40521031 346.66701443 217.25214436 C346.65708458 235.38562135 346.67002056 253.51899626 346.69394862 271.65245751 C346.71836612 290.29816155 346.72794089 308.9438181 346.72129589 327.5895378 C346.7178094 338.04715709 346.71999797 348.50469792 346.73754692 358.96230507 C346.75230212 367.86509113 346.75286113 376.76774348 346.73547601 385.67052702 C346.72699069 390.20725521 346.72475569 394.74374489 346.74012756 399.28046036 C346.75405883 403.44376898 346.74910444 407.60663665 346.72988833 411.76992031 C346.72615366 413.26576758 346.72897606 414.7616509 346.73949998 416.25746582 C346.83565325 430.98643651 344.45669831 444.76052169 336.22293091 457.26069641 C335.7214856 458.0380011 335.22004028 458.81530579 334.70339966 459.61616516 C326.50476133 471.20596776 313.65891652 478.85286218 299.91009307 481.83232152 C294.77832654 482.65040386 289.63085357 482.53810598 284.44586182 482.52139282 C283.18003199 482.52521837 281.91420215 482.52904392 280.61001384 482.53298539 C277.1170653 482.54322613 273.62421986 482.54109365 270.13126302 482.5368048 C266.35611327 482.53433041 262.58098789 482.54336055 258.80584717 482.55084229 C251.41790106 482.5635715 244.02999133 482.5653852 236.6420361 482.56304202 C230.63499907 482.56125673 224.62797306 482.56301302 218.62093735 482.56726646 C217.76497072 482.56786165 216.9090041 482.56845684 216.0270991 482.56907007 C214.28802594 482.57028186 212.54895279 482.57149599 210.80987965 482.57271244 C194.51215854 482.58358111 178.21445814 482.58142866 161.91673587 482.5753276 C147.01936967 482.57015889 132.12206887 482.58141388 117.22471561 482.60042582 C101.91383336 482.61981513 86.60298204 482.62805831 71.29208744 482.62430257 C62.70190648 482.6223922 54.11178118 482.62486203 45.52161026 482.63901711 C38.20877462 482.65094581 30.89602891 482.6523191 23.58319201 482.64022694 C19.85521772 482.63434873 16.1274078 482.63320936 12.39944458 482.64522934 C8.35082265 482.65813107 4.30258989 482.64759868 0.25396729 482.63491821 C-0.91404635 482.6422925 -2.08205999 482.64966678 -3.28546798 482.65726453 C-18.64083235 482.55631698 -33.63791246 477.09770593 -44.77706909 466.26069641 C-58.25350019 450.81480329 -62.25354447 434.57487194 -62.16474915 414.45471191 C-62.16893074 412.89571686 -62.17441276 411.33672485 -62.18106896 409.77773839 C-62.19543416 405.52814321 -62.191307 401.27874344 -62.18390214 397.02913797 C-62.17915048 392.43254396 -62.19169795 387.83599102 -62.20191956 383.2394104 C-62.21907421 374.24743017 -62.21995445 365.25551993 -62.21470665 356.26352759 C-62.21065729 348.95084788 -62.2121176 341.63818877 -62.21745491 334.32551003 C-62.21820333 333.28280441 -62.21895175 332.2400988 -62.21972286 331.16579605 C-62.22125441 329.04720168 -62.22279276 326.92860733 -62.22433782 324.81001297 C-62.23805095 304.96307801 -62.23263365 285.11618252 -62.22115261 265.26924846 C-62.21122276 247.13577147 -62.22415874 229.00239656 -62.2480868 210.86893531 C-62.2725043 192.22323127 -62.28207908 173.57757472 -62.27543408 154.93185502 C-62.27194759 144.47423573 -62.27413616 134.01669491 -62.2916851 123.55908775 C-62.3064403 114.65630169 -62.30699932 105.75364934 -62.28961419 96.8508658 C-62.28112887 92.31413761 -62.27889387 87.77764793 -62.29426575 83.24093246 C-62.30819702 79.07762384 -62.30324262 74.91475617 -62.28402651 70.75147251 C-62.28029184 69.25562524 -62.28311424 67.75974192 -62.29363816 66.26392701 C-62.41608141 47.50780023 -58.16891141 31.31541997 -44.98019409 17.47163391 C-44.25316284 16.74202454 -43.52613159 16.01241516 -42.77706909 15.26069641 C-42.23566284 14.69608704 -41.69425659 14.13147766 -41.13644409 13.54975891 C-29.72704391 2.65896782 -15.12741932 -0.0487613 0 0 Z " fill="#C4D3E3" transform="translate(113.77706909179688,14.739303588867188)"/>
<path d="M0 0 C1.53297891 0.00061358 3.06595838 0.00034413 4.59893703 -0.00073051 C8.68210335 -0.00117966 12.76515103 0.01036181 16.84828949 0.02449036 C20.68812917 0.0359306 24.52794085 0.03641933 28.36779785 0.0378418 C39.57716398 0.04831163 50.78650832 0.07623412 61.99584961 0.10205078 C99.58491211 0.16392578 99.58491211 0.16392578 137.93334961 0.22705078 C137.93334961 59.29705078 137.93334961 118.36705078 137.93334961 179.22705078 C133.89118175 178.21650882 132.45820889 177.33296608 129.94569588 174.08836365 C128.03812447 170.58107832 128.26791122 167.01261556 128.33740234 163.10400391 C128.33334381 162.20568344 128.32928528 161.30736298 128.32510376 160.38182068 C128.31959918 158.43882738 128.32555936 156.49577471 128.34176445 154.55284119 C128.36721515 151.47543645 128.36237647 148.39936909 128.34986877 145.32189941 C128.32913768 138.79013563 128.34879791 132.25878718 128.37084961 125.72705078 C128.39196363 118.1564238 128.39651168 110.58622761 128.37034798 103.01560974 C128.36698962 99.98751586 128.38820014 96.96024708 128.41075134 93.93225098 C128.40823969 92.07153138 128.40467927 90.21081281 128.39990234 88.35009766 C128.41278793 87.5114769 128.42567352 86.67285614 128.43894958 85.80882263 C128.39336608 80.47750938 127.45589807 77.46977581 123.93334961 73.22705078 C118.93180835 69.60958383 111.78776239 70.55729589 105.93334961 71.22705078 C78.80637576 76.11647684 52.84936293 94.11493814 37.17651367 116.44018555 C29.86621824 127.14454672 24.03221047 138.58510706 20.93334961 151.22705078 C20.58272461 152.48259766 20.23209961 153.73814453 19.87084961 155.03173828 C12.69647452 182.09194596 17.32346076 211.86313566 31.15625 236.16162109 C46.5158049 262.03103037 70.56505992 281.80949639 99.84204102 289.72753906 C112.374813 292.7210076 125.09404182 293.42459404 137.93334961 294.22705078 C137.93334961 356.26705078 137.93334961 418.30705078 137.93334961 482.22705078 C112.91522461 482.28892578 87.89709961 482.35080078 62.12084961 482.41455078 C50.289552 482.4555188 50.289552 482.4555188 38.21923828 482.49731445 C28.55700684 482.51086426 28.55700684 482.51086426 24.02778625 482.51338196 C20.8773713 482.5161669 17.72710936 482.52736922 14.57673645 482.54377747 C10.5478575 482.56448063 6.51919842 482.57050117 2.49027121 482.56626761 C1.01815546 482.5671518 -0.45396863 482.57302593 -1.92603838 482.58469617 C-18.80331585 482.71219033 -34.65982975 478.29733922 -47.06665039 466.22705078 C-60.54308149 450.78115767 -64.54312577 434.54122631 -64.45433044 414.42106628 C-64.45851204 412.86207123 -64.46399406 411.30307922 -64.47065026 409.74409276 C-64.48501546 405.49449758 -64.4808883 401.24509781 -64.47348344 396.99549234 C-64.46873178 392.39889833 -64.48127925 387.80234539 -64.49150085 383.20576477 C-64.50865551 374.21378454 -64.50953575 365.2218743 -64.50428795 356.22988196 C-64.50023859 348.91720225 -64.50169889 341.60454314 -64.50703621 334.2918644 C-64.50778463 333.24915878 -64.50853305 332.20645317 -64.50930415 331.13215042 C-64.51083571 329.01355605 -64.51237406 326.8949617 -64.51391912 324.77636734 C-64.52763225 304.92943238 -64.52221495 285.08253689 -64.51073391 265.23560283 C-64.50080406 247.10212584 -64.51374004 228.96875093 -64.5376681 210.83528968 C-64.5620856 192.18958564 -64.57166038 173.54392909 -64.56501538 154.89820939 C-64.56152888 144.44059011 -64.56371745 133.98304928 -64.5812664 123.52544212 C-64.5960216 114.62265606 -64.59658061 105.72000371 -64.57919549 96.81722017 C-64.57071017 92.28049198 -64.56847517 87.7440023 -64.58384705 83.20728683 C-64.59777832 79.04397821 -64.59282392 74.88111054 -64.57360781 70.71782688 C-64.56987314 69.22197961 -64.57269554 67.72609629 -64.58321946 66.23028138 C-64.70566271 47.4741546 -60.45849271 31.28177434 -47.26977539 17.43798828 C-46.54274414 16.70837891 -45.81571289 15.97876953 -45.06665039 15.22705078 C-44.52524414 14.66244141 -43.98383789 14.09783203 -43.42602539 13.51611328 C-31.33933807 1.97882084 -15.9291469 -0.08374592 0 0 Z " fill="#E7ECF1" transform="translate(116.066650390625,14.77294921875)"/>
<path d="M0 0 C4.38935394 4.38935394 5.65238763 7.67643619 5.68257141 13.75874329 C5.67171005 14.59938828 5.66084869 15.44003326 5.6496582 16.30615234 C5.65048904 17.65100456 5.65048904 17.65100456 5.65133667 19.02302551 C5.65107719 20.96549968 5.64421504 22.90798175 5.63149452 24.85041428 C5.61310577 27.92780433 5.6157888 31.00451428 5.6245575 34.0819397 C5.64636148 42.8297984 5.63544392 51.57739609 5.59741211 60.32519531 C5.57560458 65.68040306 5.58286265 71.03494154 5.6078701 76.39012527 C5.61146008 78.42742679 5.60382011 80.46478089 5.58461952 82.50199509 C5.55824879 85.35543207 5.56873638 88.20660826 5.5871582 91.06005859 C5.56175713 92.31495338 5.56175713 92.31495338 5.5358429 93.59519958 C5.62174002 99.06479025 6.95818668 101.9624667 10.6348753 106.00887489 C14.76008807 109.21443745 20.04411294 108.45752959 25.02490234 108.4543457 C25.90342361 108.45782013 26.78194489 108.46129456 27.68708801 108.46487427 C29.5930048 108.47221986 31.49893008 108.47757162 33.40485764 108.48116493 C36.4229397 108.4883395 39.44086004 108.50401301 42.45889282 108.52250671 C51.03930464 108.57493377 59.6196267 108.62296115 68.20019531 108.63842773 C73.45046301 108.64851159 78.70032187 108.67784409 83.95042801 108.71974754 C85.94943779 108.73205412 87.94850531 108.73717943 89.94755173 108.73494911 C92.74591441 108.73259493 95.54310447 108.75477061 98.34130859 108.7824707 C99.57590065 108.77256859 99.57590065 108.77256859 100.83543396 108.76246643 C106.11593552 108.84817234 109.12382611 109.81792681 113.3125 113.3125 C116.37709087 117.24146266 117.65609984 119.76361207 117.3125 124.75 C117.02329829 126.6115605 116.68382813 128.46556726 116.3125 130.3125 C116.08433594 131.48941406 115.85617187 132.66632813 115.62109375 133.87890625 C111.24553478 154.4289632 101.01102068 171.5529175 87.3125 187.3125 C86.52166016 188.23095703 86.52166016 188.23095703 85.71484375 189.16796875 C71.56141057 204.4073431 52.02353568 213.77386187 32.3125 219.3125 C31.65701172 219.50972656 31.00152344 219.70695313 30.32617188 219.91015625 C23.5329163 221.71912516 16.65707277 221.61533717 9.67578125 221.57324219 C7.5804299 221.56259114 5.48594918 221.57314914 3.390625 221.5859375 C-27.02132793 221.62046316 -51.75616976 209.99367298 -73.6875 189.3125 C-74.43773437 188.63832031 -75.18796875 187.96414063 -75.9609375 187.26953125 C-90.65877067 173.52576796 -99.58211604 154.49723861 -104.6875 135.3125 C-105.00847656 134.14460937 -105.32945312 132.97671875 -105.66015625 131.7734375 C-111.55718869 107.03332933 -107.26009531 80.7312723 -95.6875 58.3125 C-95.15382812 57.27222656 -94.62015625 56.23195312 -94.0703125 55.16015625 C-78.95495567 27.64152815 -53.61135224 8.55232525 -23.69189453 -0.27636719 C-16.56136224 -2.20279561 -6.60562206 -4.08919461 0 0 Z " fill="#E9293A" transform="translate(239.6875,86.6875)"/>
<path d="M0 0 C13.16014145 4.62337876 25.40975054 11.26350507 36.03076172 20.35058594 C36.82869141 21.01574219 37.62662109 21.68089844 38.44873047 22.36621094 C56.306986 37.76030408 67.78949987 57.66402464 73.90576172 80.28808594 C74.12135742 81.08118164 74.33695312 81.87427734 74.55908203 82.69140625 C76.03816253 88.49734912 76.99332512 93.76686313 74.84326172 99.53808594 C72.51030164 103.1581964 69.87531417 105.42830971 66.03076172 107.35058594 C63.1640814 107.46483288 60.32114794 107.51844842 57.45361328 107.52758789 C56.1216391 107.53744469 56.1216391 107.53744469 54.76275635 107.54750061 C51.81563233 107.56725737 48.86855935 107.57890201 45.92138672 107.58886719 C44.91571404 107.59294271 43.91004135 107.59701824 42.87389374 107.60121727 C37.55020858 107.62208899 32.22654928 107.63638546 26.90283203 107.64575195 C21.40365769 107.65681363 15.90488831 107.69120775 10.40585709 107.73092365 C6.17819466 107.75707095 1.95062894 107.76544217 -2.27710724 107.76903343 C-4.30408714 107.77390492 -6.33106257 107.78553486 -8.35796356 107.80407143 C-11.19713892 107.8284206 -14.03526389 107.8275054 -16.87451172 107.82055664 C-17.71006592 107.8333667 -18.54562012 107.84617676 -19.40649414 107.859375 C-24.72521547 107.81199318 -27.82256028 106.97776121 -31.96923828 103.35058594 C-36.25676699 98.43548868 -36.54758214 94.5428355 -36.48681641 88.31933594 C-36.49382568 87.43076904 -36.50083496 86.54220215 -36.50805664 85.62670898 C-36.52560526 82.70101304 -36.51402498 79.77629105 -36.50048828 76.85058594 C-36.50318409 74.81087051 -36.50706726 72.77115635 -36.51208496 70.73144531 C-36.51797577 66.46113829 -36.50943035 62.19116644 -36.49072266 57.92089844 C-36.46793354 52.45313842 -36.48105883 46.98616383 -36.50501251 41.51843262 C-36.51948165 37.30788275 -36.51485934 33.09751842 -36.50450134 28.88696289 C-36.50183715 26.87117418 -36.50509297 24.8553685 -36.51441956 22.83959961 C-36.52460339 20.01989256 -36.50905835 17.20144911 -36.48681641 14.38183594 C-36.49491333 13.55256592 -36.50301025 12.7232959 -36.51135254 11.86889648 C-36.43402294 6.56463832 -35.46271626 3.56978727 -31.96923828 -0.64941406 C-22.88075681 -8.49855715 -10.25752476 -3.38271955 0 0 Z " fill="#F89944" transform="translate(303.96923828125,65.6494140625)"/>
<path d="M0 0 C1.63037327 0.00267655 3.26074244 0.01118295 4.8910675 0.02400208 C6.22282265 0.02877563 6.22282265 0.02877563 7.58148193 0.03364563 C10.53410949 0.04629211 13.48659516 0.06716514 16.43916321 0.0896759 C17.44575296 0.09663294 18.45234272 0.10358997 19.4894352 0.11075783 C24.8196659 0.14821921 30.14979837 0.19226298 35.47993469 0.24128723 C40.98679342 0.29057605 46.4935079 0.31680451 52.00053692 0.33771801 C56.23263461 0.35810053 60.46444787 0.39598447 64.69637489 0.43857765 C66.72607198 0.45591531 68.75583712 0.46661208 70.78560448 0.47052574 C73.62987006 0.47761469 76.4728493 0.50955344 79.31684875 0.54743958 C80.57253662 0.5422506 80.57253662 0.5422506 81.85359192 0.53695679 C87.16706371 0.64145624 90.21483954 1.58604844 94.42744446 5.10920715 C97.49203533 9.03816981 98.7710443 11.56031922 98.42744446 16.54670715 C98.13824275 18.40826766 97.79877259 20.26227441 97.42744446 22.10920715 C97.1992804 23.28612122 96.97111633 24.46303528 96.73603821 25.6756134 C92.36047924 46.22567035 82.12596513 63.34962465 68.42744446 79.10920715 C67.9002179 79.72151184 67.37299133 80.33381653 66.82978821 80.9646759 C51.61225495 97.34979483 30.29360884 106.99078285 8.95088196 112.27326965 C8.29781067 112.43520813 7.64473938 112.59714661 6.97187805 112.76399231 C4.52214577 113.0963586 2.23762314 113.14305577 -0.23158264 113.13078308 C-1.45011209 113.12611054 -1.45011209 113.12611054 -2.69325829 113.12134361 C-3.31342638 113.11733858 -3.93359447 113.11333355 -4.57255554 113.10920715 C-4.59588557 98.5234952 -4.61346881 83.93778613 -4.62436771 69.35205936 C-4.62953045 62.58010295 -4.63657272 55.8081581 -4.647995 49.03620911 C-4.65900268 42.5069629 -4.66483179 35.97772422 -4.66743279 29.44846916 C-4.66928753 26.95127103 -4.67290908 24.4540736 -4.6782856 21.95688057 C-4.68549238 18.47256646 -4.68654664 14.98830284 -4.68608093 11.50398254 C-4.68967621 10.4602951 -4.69327148 9.41660767 -4.69697571 8.34129333 C-4.69560104 7.39753342 -4.69422638 6.4537735 -4.69281006 5.48141479 C-4.69373185 4.65641007 -4.69465364 3.83140535 -4.69560337 2.98140049 C-4.46961544 -0.45704373 -3.56568026 0.10899699 0 0 Z " fill="#D42032" transform="translate(258.5725555419922,194.8907928466797)"/>
<path d="M0 0 C19.58429356 -0.09260805 39.16852526 -0.16398464 58.75299263 -0.20724869 C67.84647197 -0.22787117 76.93981273 -0.25598574 86.03320312 -0.30175781 C93.95930063 -0.34163523 101.88529777 -0.3674351 109.8114928 -0.37635398 C114.00813336 -0.38156722 118.2044868 -0.39381351 122.40103531 -0.42292023 C126.35237562 -0.45010374 130.303311 -0.45843915 134.25473595 -0.45243073 C135.70353967 -0.45352966 137.15235717 -0.46146639 138.60107994 -0.4768219 C140.58259615 -0.49679153 142.56433044 -0.48953876 144.54592896 -0.48101807 C146.20792171 -0.48654882 146.20792171 -0.48654882 147.90349007 -0.49219131 C152.5042952 0.23910824 155.52286621 2.62134179 158.875 5.75 C160.57202328 9.14404657 160.63557611 12.33484441 160 16 C157.71611799 20.48317579 155.48069723 22.79399301 151 25 C148.0265379 25.36914349 148.0265379 25.36914349 144.66618347 25.36076355 C143.38877289 25.36488754 142.1113623 25.36901154 140.79524231 25.3732605 C139.38717438 25.36264441 137.97910861 25.35174 136.57104492 25.34057617 C135.08264178 25.3397296 133.59423738 25.34020562 132.10583496 25.34190369 C128.07102571 25.34276391 124.03648438 25.32513385 120.00173736 25.30418181 C115.78301717 25.28541952 111.56429075 25.28366493 107.34553528 25.28010559 C99.35934197 25.27078381 91.37327197 25.24616823 83.38713294 25.21605712 C74.29409978 25.18251726 65.20106071 25.16602814 56.10798109 25.15097082 C37.4052489 25.11961878 18.70263888 25.06625092 0 25 C0 16.75 0 8.5 0 0 Z " fill="#ABB8C2" transform="translate(254,427)"/>
<path d="M0 0 C1.24375397 -0.00412399 2.48750793 -0.00824799 3.76895142 -0.01249695 C5.13923864 -0.00188096 6.50952365 0.00902345 7.87980652 0.02018738 C9.32880129 0.02103398 10.77779735 0.02055786 12.22679138 0.01885986 C16.15416909 0.01799977 20.08127145 0.03562772 24.00858521 0.05658174 C28.11519614 0.07534619 32.22181351 0.07709879 36.32846069 0.08065796 C44.10215982 0.08997911 51.87573226 0.11459382 59.64937562 0.14470643 C68.50057493 0.17824827 77.35178032 0.1947359 86.20302737 0.20979273 C104.40810502 0.24114333 122.61305715 0.29451008 140.81803894 0.36076355 C140.81803894 8.61076355 140.81803894 16.86076355 140.81803894 25.36076355 C121.75528164 25.45337614 102.69258791 25.5247505 83.62965202 25.56801224 C74.77830723 25.58863372 65.92710483 25.61674636 57.07585144 25.66252136 C49.36070476 25.70240186 41.64566121 25.72819938 33.93041432 25.73711753 C29.84555299 25.74233025 25.76098668 25.7545732 21.67621994 25.78368378 C17.82993602 25.8108722 13.98406811 25.81920174 10.13769722 25.81319427 C8.72759425 25.81429299 7.3174771 25.82222684 5.90745735 25.83758545 C-7.31726841 25.97454657 -7.31726841 25.97454657 -12.18196106 21.36076355 C-14.55498273 18.43403683 -15.14162732 16.67767151 -15.61946106 12.92326355 C-15.09429935 8.64694676 -13.94208315 6.6430709 -11.18196106 3.36076355 C-7.35927144 0.56872493 -4.69937091 -0.01203938 0 0 Z " fill="#C4D3E4" transform="translate(113.18196105957031,426.6392364501953)"/>
<path d="M0 0 C19.60158064 -0.06943527 39.20312657 -0.12297789 58.8048048 -0.15543652 C67.90612664 -0.17090794 77.00737068 -0.19200273 86.10864258 -0.22631836 C94.04095601 -0.25621228 101.9732131 -0.275573 109.9055813 -0.28226548 C114.10604693 -0.28617776 118.30635137 -0.29537785 122.50676537 -0.31719017 C126.46051816 -0.33755523 130.41404337 -0.34383379 134.36784363 -0.33932304 C135.81867014 -0.34014824 137.26950427 -0.34611391 138.72028542 -0.35761642 C140.70219538 -0.37255897 142.6842275 -0.3671621 144.66618347 -0.36076355 C145.77510043 -0.36352893 146.88401739 -0.36629431 148.0265379 -0.36914349 C152.53342654 0.1903688 156.19058199 2.42196763 159 6 C160.3099083 10.3525434 160.30741676 14.07774971 158.875 18.375 C156.75967603 21.33645355 155.2540828 22.41044737 152 24 C149.01092052 24.36914349 149.01092052 24.36914349 145.6282196 24.36076355 C143.6994825 24.36694954 143.6994825 24.36694954 141.73178101 24.3732605 C140.31426791 24.36264439 138.89675694 24.35173998 137.47924805 24.34057617 C135.98099281 24.33972961 134.48273633 24.34020561 132.98448181 24.34190369 C128.92281465 24.34276394 124.86141362 24.32513337 120.79980826 24.30418181 C116.55306077 24.28542004 112.30630708 24.28366497 108.05952454 24.28010559 C100.02020767 24.27078366 91.98101329 24.24616787 83.94175035 24.21605712 C74.78825873 24.18251774 65.63476124 24.16602826 56.48122346 24.15097082 C37.65407763 24.11961844 18.82705315 24.0662503 0 24 C0 16.08 0 8.16 0 0 Z " fill="#ABB8C2" transform="translate(254,362)"/>
<path d="M0 0 C1.87206619 -0.002062 1.87206619 -0.002062 3.7819519 -0.00416565 C5.17257714 -0.00062627 6.56320214 0.00300854 7.9538269 0.00672913 C9.41223143 0.00701107 10.87063609 0.00685311 12.32904053 0.00628662 C16.2957501 0.00599894 20.26242961 0.01189087 24.22913218 0.01886058 C28.37180842 0.02509906 32.51448531 0.02569831 36.65716553 0.02688599 C44.50528394 0.02999784 52.35338848 0.03820927 60.20150077 0.04823548 C69.13486984 0.05940114 78.06823955 0.06490821 87.00161386 0.06993091 C105.38136354 0.08039199 123.76109946 0.09818934 142.14083862 0.12025452 C142.14083862 8.04025452 142.14083862 15.96025452 142.14083862 24.12025452 C122.80004241 24.21283665 103.45930874 24.28422585 84.11833668 24.3275032 C75.13804902 24.34813144 66.15790154 24.37625699 57.17770386 24.42201233 C49.35086543 24.46187215 41.52412852 24.48768543 33.69719142 24.4966085 C29.55256025 24.50182472 25.40821952 24.51408996 21.26368141 24.54317474 C17.36241015 24.57033049 13.4615489 24.5786993 9.56019211 24.57268524 C8.1287062 24.57378542 6.69720654 24.58173873 5.26580238 24.59707642 C3.31021174 24.61700247 1.35440097 24.60980323 -0.60127258 24.60127258 C-1.69544086 24.60495975 -2.78960913 24.60864693 -3.91693401 24.61244583 C-7.56903991 24.00150229 -9.22051171 22.66683613 -11.85916138 20.12025452 C-14.11229904 16.15044055 -14.48029218 12.62345285 -13.85916138 8.12025452 C-10.00672168 2.16433547 -7.09408035 -0.00600176 0 0 Z " fill="#C4D3E4" transform="translate(111.85916137695313,361.87974548339844)"/>
<path d="M0 0 C4.24667352 1.79303993 6.03049308 3.88106648 8 8 C8.28998341 10.83328184 8.42065763 13.44445737 8.40405273 16.27514648 C8.41091599 17.09529236 8.41777924 17.91543823 8.42485046 18.76043701 C8.4431109 21.46416673 8.43928206 24.16731576 8.43359375 26.87109375 C8.43815597 28.75529672 8.44346167 30.63949802 8.44947815 32.5236969 C8.45840781 36.47037521 8.45598783 40.41685116 8.44604492 44.36352539 C8.43455642 49.41541429 8.45476562 54.46660408 8.48396206 59.51840115 C8.50232872 63.40896525 8.50203065 67.29936198 8.49632454 71.18995857 C8.49617138 73.05224653 8.50221157 74.91454587 8.51461601 76.77679253 C8.52953284 79.38345776 8.51884439 81.98883346 8.50170898 84.59545898 C8.51137695 85.36084488 8.52104492 86.12623077 8.53100586 86.91481018 C8.45994789 92.08999865 7.24332775 95.00113299 4 99 C0.86724599 101.77472498 -1.43730742 102.22233641 -5.5 102 C-10.03851609 101.30525211 -12.2048053 99.72692627 -15 96 C-17.18628496 91.72507016 -17.296295 87.70511 -17.29052734 83.00024414 C-17.29724457 82.20935898 -17.30396179 81.41847382 -17.31088257 80.60362244 C-17.32983161 77.9974026 -17.33378495 75.39144062 -17.3359375 72.78515625 C-17.34236676 70.96821488 -17.34909521 69.15127454 -17.35610962 67.33433533 C-17.36807404 63.52893676 -17.37179122 59.72362893 -17.37060547 55.91821289 C-17.37040214 51.04794988 -17.39772244 46.17826947 -17.43214989 41.30814457 C-17.45441134 37.55656778 -17.45844327 33.80513148 -17.45738602 30.05349541 C-17.45974241 28.25818305 -17.46856813 26.46286685 -17.48405075 24.66761971 C-17.50369915 22.15438363 -17.49787821 19.64240778 -17.48583984 17.12915039 C-17.49707886 16.39181671 -17.50831787 15.65448303 -17.51989746 14.89480591 C-17.4580176 9.79788895 -16.184553 6.93736643 -13 3 C-8.95623439 -0.36980467 -5.06810393 -0.75044947 0 0 Z " fill="#FEFEFE" transform="translate(84,79)"/>
<path d="M0 0 C4.00075581 0.07596372 6.45773695 0.74976046 9.43359375 3.64453125 C11.64125417 6.41505126 13.29790567 9.47114376 15.04296875 12.546875 C19.03664851 18.92970976 24.16719668 24.74509873 29.49609375 30.04296875 C32.14494883 32.70969132 33.68418791 34.41265935 34.1875 38.1875 C33.71566168 42.1981257 32.30689589 44.23918802 29.8125 47.375 C26.31320061 49.70786626 24.45545861 50.04967355 20.3359375 49.9296875 C9.56845177 47.56284079 1.16289372 34.52613414 -4.59375 25.80859375 C-11.44529364 14.91101319 -11.44529364 14.91101319 -10.796875 8.21484375 C-9.75482125 5.068643 -7.73831979 3.36588374 -5.1875 1.375 C-3.63766739 -0.17483261 -2.15081622 0.09367039 0 0 Z " fill="#FD6458" transform="translate(164.1875,225.625)"/>
<path d="M0 0 C3.5654219 2.04681627 5.32983984 3.27627074 6.8125 7.08984375 C8.17864611 12.6398123 9.17340572 18.41850742 6.75 23.75 C4.37201686 26.80740689 2.8929071 28.70878352 -1.08203125 29.3203125 C-5.07906013 29.51916966 -7.41645371 29.33522872 -10.9375 27.3125 C-15.50901737 22.18685931 -15.47682261 16.71903324 -15.39453125 10.11328125 C-14.81797987 5.56366295 -13.43572174 3.94490435 -10 1 C-6.75625264 -0.62187368 -3.50578534 -0.55388802 0 0 Z " fill="#FD6358" transform="translate(159,189)"/>
</svg>
