<?xml version="1.0" encoding="UTF-8"?>
<svg version="1.1" xmlns="http://www.w3.org/2000/svg" width="512" height="512">
<path d="M0 0 C4.10370242 0.00912864 8.20733908 -0.00495757 12.311028 -0.01591969 C20.33006082 -0.0336269 28.34894316 -0.02989991 36.36798167 -0.01826912 C42.89016763 -0.00920419 49.41231167 -0.00802397 55.93450212 -0.01236439 C56.86578682 -0.01297732 57.79707151 -0.01359025 58.75657696 -0.01422176 C60.64896672 -0.01550077 62.54135648 -0.01679762 64.43374622 -0.01811212 C82.14327876 -0.02949508 99.85272824 -0.01644017 117.56224716 0.00508934 C132.72975954 0.02295824 147.89714942 0.01985349 163.0646596 0.0014143 C180.71450517 -0.02003289 198.3642781 -0.02839665 216.01413488 -0.01613665 C217.89923206 -0.01486256 219.78432924 -0.01360508 221.66942644 -0.01236439 C223.06037355 -0.01143873 223.06037355 -0.01143873 224.4794206 -0.01049438 C230.98733348 -0.00705301 237.49519995 -0.01284355 244.00310564 -0.0222826 C251.94331001 -0.03354684 259.88335637 -0.03037011 267.82354283 -0.00915962 C271.86815673 0.00129163 275.91250802 0.00557501 279.95711946 -0.00775623 C316.61426762 -0.1186018 316.61426762 -0.1186018 332.11446428 8.27289867 C332.77269182 8.61723949 333.43091936 8.96158031 334.10909319 9.31635571 C354.48279075 20.2462803 368.05671653 36.90073994 375.87239122 58.47811413 C379.97139807 72.16050526 379.37386877 86.22478593 379.32486296 100.36824656 C379.31572774 104.27562935 379.32982371 108.18294337 379.34078264 112.090312 C379.35848301 119.7243318 379.35476598 127.35819346 379.34313208 134.99221921 C379.33406441 141.20166737 379.3328881 147.41107151 379.33722734 153.62052441 C379.33784028 154.50740332 379.33845321 155.39428223 379.33908471 156.30803627 C379.34036374 158.11023403 379.34166059 159.91243179 379.34297508 161.71462953 C379.35435603 178.57720173 379.34130631 195.43968666 379.31977361 212.30224454 C379.3019049 226.74205052 379.30500971 241.18172783 379.32344866 255.62153149 C379.34489942 272.42757468 379.35325762 289.23354158 379.3409996 306.03959656 C379.33972553 307.83482201 379.33846805 309.63004747 379.33722734 311.42527294 C379.33630169 312.7498814 379.33630169 312.7498814 379.33535734 314.10124964 C379.33191703 320.2965768 379.33770418 326.49185519 379.34714556 332.6871748 C379.35841381 340.24676496 379.35522479 347.80618919 379.33402258 355.36576056 C379.32357661 359.21595331 379.31927863 363.06587032 379.33261919 366.91606045 C379.44519243 402.33201077 379.44519243 402.33201077 371.05196428 417.83539867 C370.70762346 418.49362621 370.36328264 419.15185375 370.00850725 419.83002758 C358.61495099 441.06794805 340.50541755 455.65024168 317.48726702 462.62726879 C304.59224632 466.01353407 290.83974986 465.08942327 277.60392857 465.04579735 C273.50022615 465.03666871 269.39658949 465.05075492 265.29290056 465.06171703 C257.27386774 465.07942425 249.2549854 465.07569726 241.23594689 465.06406647 C234.71376094 465.05500154 228.1916169 465.05382132 221.66942644 465.05816174 C220.2724994 465.05908113 220.2724994 465.05908113 218.84735161 465.06001911 C216.95496184 465.06129812 215.06257209 465.06259497 213.17018235 465.06390947 C195.4606498 465.07529243 177.75120033 465.06223752 160.04168141 465.04070801 C144.87416903 465.02283911 129.70677914 465.02594386 114.53926897 465.04438305 C96.8894234 465.06583023 79.23965047 465.074194 61.58979368 465.06193399 C59.70469651 465.06065991 57.81959932 465.05940243 55.93450212 465.05816174 C54.54355502 465.05723608 54.54355502 465.05723608 53.12450796 465.05629173 C46.61659508 465.05285036 40.10872861 465.0586409 33.60082293 465.06807995 C25.66061856 465.07934419 17.72057219 465.07616745 9.78038573 465.05495697 C5.73577184 465.04450572 1.69142055 465.04022234 -2.3531909 465.05355358 C-39.01033905 465.16439915 -39.01033905 465.16439915 -54.51053572 456.77289867 C-55.16876326 456.42855785 -55.8269908 456.08421703 -56.50516462 455.72944164 C-76.87886218 444.79951704 -90.45278796 428.14505741 -98.26846266 406.56768322 C-102.3674695 392.88529208 -101.7699402 378.82101142 -101.72093439 364.67755079 C-101.71179918 360.770168 -101.72589514 356.86285398 -101.73685408 352.95548534 C-101.75455444 345.32146555 -101.75083741 337.68760389 -101.73920351 330.05357814 C-101.73013584 323.84412998 -101.72895953 317.63472584 -101.73329878 311.42527294 C-101.73391171 310.53839403 -101.73452464 309.65151511 -101.73515615 308.73776108 C-101.73643517 306.93556331 -101.73773203 305.13336556 -101.73904651 303.33116782 C-101.75042746 286.46859562 -101.73737774 269.60611069 -101.71584505 252.7435528 C-101.69797633 238.30374683 -101.70108114 223.86406952 -101.71952009 209.42426586 C-101.74097086 192.61822266 -101.74932906 175.81225577 -101.73707104 159.00620079 C-101.73579696 157.21097534 -101.73453948 155.41574988 -101.73329878 153.62052441 C-101.73268168 152.7374521 -101.73206457 151.85437979 -101.73142877 150.94454771 C-101.72798847 144.74922055 -101.73377561 138.55394216 -101.74321699 132.35862255 C-101.75448524 124.79903239 -101.75129623 117.23960816 -101.73009402 109.68003678 C-101.71964805 105.82984404 -101.71535006 101.97992703 -101.72869062 98.1297369 C-101.84126387 62.71378658 -101.84126387 62.71378658 -93.44803572 47.21039867 C-93.1036949 46.55217113 -92.75935408 45.8939436 -92.40457869 45.21576977 C-81.01102243 23.9778493 -62.90148898 9.39555567 -39.88333845 2.41852856 C-26.98831776 -0.96773672 -13.23582129 -0.04362592 0 0 Z " fill="#330000" transform="translate(117.1980357170105,23.47710132598877)"/>
<path d="M0 0 C7.06564241 -0.12658532 14.13099346 -0.21426063 21.19750977 -0.2746582 C23.60224332 -0.29983101 26.00690015 -0.33397182 28.41137695 -0.37719727 C31.86428733 -0.43772467 35.31618795 -0.46618244 38.76953125 -0.48828125 C40.38683891 -0.52699089 40.38683891 -0.52699089 42.03681946 -0.56648254 C49.40011671 -0.56926108 49.40011671 -0.56926108 51.97045898 1.86987305 C52.48008179 3.41928589 52.48008179 3.41928589 53 5 C53.27060745 5.72835556 53.5412149 6.45671112 53.82002258 7.20713806 C54.83840428 9.97771407 55.77401175 12.76856549 56.703125 15.5703125 C57.05730499 16.62178467 57.41148499 17.67325684 57.77639771 18.7565918 C58.53983723 21.02457643 59.30070171 23.29342915 60.05926514 25.56304932 C62.08722612 31.62946866 64.13441285 37.68940061 66.1796875 43.75 C66.59171417 44.97244415 67.00374084 46.19488831 67.42825317 47.45437622 C71.00043571 58.03861094 74.67040996 68.58653875 78.375 79.125 C84.5951841 96.84033242 90.63387483 114.61541625 96.64294815 132.40322876 C103.13242262 151.61210101 109.70614679 170.78826791 116.41992188 189.91992188 C116.70987534 190.746362 116.9998288 191.57280212 117.29856873 192.42428589 C117.82608644 193.92664068 118.35436918 195.42872725 118.88368225 196.93045044 C119.35397068 198.26797939 119.82052955 199.60682669 120.2829895 200.94708252 C120.79970759 202.4265303 121.334214 203.89980782 121.87985229 205.36883545 C122.16434235 206.15897034 122.4488324 206.94910522 122.74194336 207.76318359 C123.13814125 208.83540665 123.13814125 208.83540665 123.54234314 209.92929077 C124 212 124 212 123 216 C109.47 216 95.94 216 82 216 C78.91100331 208.58640794 75.91422118 201.26138561 73.23046875 193.7109375 C72.90460281 192.80042633 72.57873688 191.88991516 72.24299622 190.95181274 C71.56514715 189.05518118 70.88885873 187.15799114 70.21411133 185.26025391 C69.17680873 182.34495257 68.13264636 179.43216882 67.08789062 176.51953125 C66.42667632 174.66681187 65.76585427 172.81395245 65.10546875 170.9609375 C64.63683662 169.65484024 64.63683662 169.65484024 64.15873718 168.32235718 C63.87456436 167.52036896 63.59039154 166.71838074 63.29760742 165.89208984 C62.92051888 164.83385513 62.92051888 164.83385513 62.53581238 163.75424194 C62 162 62 162 62 160 C38.24 160.33 14.48 160.66 -10 161 C-15.83844429 177.97653422 -15.83844429 177.97653422 -21.66748047 194.95629883 C-22.40037477 197.08166072 -23.13358854 199.20691248 -23.8671875 201.33203125 C-24.24560791 202.43945679 -24.62402832 203.54688232 -25.01391602 204.68786621 C-25.37912354 205.74324585 -25.74433105 206.79862549 -26.12060547 207.88598633 C-26.43593231 208.80309891 -26.75125916 209.72021149 -27.07614136 210.66511536 C-28 213 -28 213 -30 216 C-32.83727325 216.26667539 -35.45383045 216.34791234 -38.2890625 216.29296875 C-39.10748627 216.28872391 -39.92591003 216.28447906 -40.76913452 216.28010559 C-43.38808836 216.26328679 -46.00627802 216.22562974 -48.625 216.1875 C-50.3984264 216.17245726 -52.17186484 216.15876814 -53.9453125 216.14648438 C-58.2971703 216.11337292 -62.64845551 216.06156952 -67 216 C-68.87776279 210.75780061 -66.82482316 206.55732415 -65.046875 201.578125 C-64.71994156 200.6308403 -64.39300812 199.6835556 -64.0561676 198.70756531 C-63.34166127 196.64134315 -62.62165863 194.57701549 -61.8968811 192.51437378 C-60.3283717 188.04991712 -58.78616929 183.57651755 -57.24263 179.1033783 C-56.42384513 176.73091198 -55.60373949 174.35890113 -54.78239441 171.98731995 C-50.59426029 159.87918315 -46.54790637 147.7251275 -42.51538086 135.56445312 C-36.94173502 118.75867221 -31.33890976 101.96413064 -25.59521484 85.21563721 C-24.75856135 82.77497494 -23.92382589 80.3336661 -23.08984375 77.89208984 C-22.8167337 77.09254883 -22.54362366 76.29300781 -22.26223755 75.46923828 C-21.71014954 73.85272426 -21.15812716 72.23618783 -20.60617065 70.61962891 C-19.07533215 66.13848648 -17.53902949 61.65928974 -15.99658203 57.18212891 C-14.25705118 52.12979965 -12.53267308 47.07248553 -10.81677246 42.01208496 C-10.16091392 40.08580442 -9.50023434 38.16115675 -8.83410645 36.23840332 C-4.67950546 24.23675636 -1.64309236 12.60474192 0 0 Z " fill="#FD9800" transform="translate(196,152)"/>
<path d="M0 0 C0.82290527 0.00202423 1.64581055 0.00404846 2.49365234 0.00613403 C3.33331543 0.00517731 4.17297852 0.00422058 5.03808594 0.00323486 C6.81689529 0.00255306 8.59570712 0.00440737 10.37451172 0.00857544 C13.10699011 0.01392371 15.83930411 0.00863048 18.57177734 0.00222778 C20.29573604 0.00288856 22.01969464 0.00416973 23.74365234 0.00613403 C24.56655762 0.0041098 25.38946289 0.00208557 26.23730469 0 C32.0037018 0.02399599 32.0037018 0.02399599 33.11865234 1.13894653 C33.21762654 3.17425327 33.24497535 5.21305124 33.24563599 7.25076294 C33.24719598 7.89611307 33.24875597 8.5414632 33.25036323 9.2063694 C33.25437484 11.38443868 33.25118298 13.56243914 33.24804688 15.74050903 C33.24940085 17.29566489 33.25118075 18.85082042 33.25335693 20.40597534 C33.25793178 24.64139333 33.2561415 28.87678707 33.25297785 33.11220551 C33.25045451 37.53469409 33.25279171 41.95718053 33.25436401 46.37966919 C33.25618579 53.80789566 33.2537792 61.2361122 33.24902344 68.66433716 C33.2435808 77.26499795 33.24534345 85.86563503 33.25084984 94.46629524 C33.25538076 101.83697272 33.25603163 109.20764304 33.25341117 116.57832146 C33.25184828 120.98649357 33.25165497 125.39465452 33.25494766 129.80282593 C33.25782606 133.94613002 33.25585127 138.08940341 33.25005341 142.23270416 C33.24872564 143.75776366 33.2491202 145.28282572 33.25131607 146.80788422 C33.25402694 148.88100165 33.25064727 150.95401915 33.24563599 153.02713013 C33.24525896 154.19005585 33.24488194 155.35298157 33.24449348 156.55114746 C33.11865234 159.13894653 33.11865234 159.13894653 32.11865234 160.13894653 C29.31871637 160.23997908 26.54396591 160.27864741 23.74365234 160.27175903 C22.90398926 160.27271576 22.06432617 160.27367249 21.19921875 160.2746582 C19.4204094 160.27534001 17.64159757 160.2734857 15.86279297 160.26931763 C13.13031458 160.26396936 10.39800058 160.26926259 7.66552734 160.27566528 C5.94156865 160.2750045 4.21761005 160.27372334 2.49365234 160.27175903 C1.67074707 160.27378326 0.8478418 160.2758075 0 160.27789307 C-5.76639711 160.25389708 -5.76639711 160.25389708 -6.88134766 159.13894653 C-6.98032185 157.1036398 -7.00767066 155.06484183 -7.0083313 153.02713013 C-7.00989129 152.38177999 -7.01145128 151.73642986 -7.01305854 151.07152367 C-7.01707015 148.89345439 -7.0138783 146.71545392 -7.01074219 144.53738403 C-7.01209616 142.98222818 -7.01387607 141.42707265 -7.01605225 139.87191772 C-7.02062709 135.63649974 -7.01883681 131.401106 -7.01567316 127.16568756 C-7.01314982 122.74319898 -7.01548702 118.32071254 -7.01705933 113.89822388 C-7.0188811 106.46999741 -7.01647451 99.04178087 -7.01171875 91.61355591 C-7.00627612 83.01289512 -7.00803877 74.41225804 -7.01354516 65.81159782 C-7.01807607 58.44092035 -7.01872694 51.07025003 -7.01610649 43.69957161 C-7.01454359 39.2913995 -7.01435028 34.88323854 -7.01764297 30.47506714 C-7.02052137 26.33176305 -7.01854658 22.18848966 -7.01274872 18.0451889 C-7.01142095 16.52012941 -7.01181552 14.99506735 -7.01401138 13.47000885 C-7.01672225 11.39689141 -7.01334258 9.32387391 -7.0083313 7.25076294 C-7.00795427 6.08783722 -7.00757725 4.9249115 -7.0071888 3.72674561 C-6.7719003 -1.11173043 -4.23759732 0.01763412 0 0 Z " fill="#FE9900" transform="translate(346.88134765625,207.86105346679688)"/>
<path d="M0 0 C2.38037474 2.38037474 2.79518249 4.04202036 3.76953125 7.25 C4.09856445 8.32499756 4.42759766 9.39999512 4.76660156 10.50756836 C5.11174805 11.6600708 5.45689453 12.81257324 5.8125 14 C6.16924805 15.17377197 6.52599609 16.34754395 6.89355469 17.55688477 C9.15810326 25.05295043 11.29791071 32.57561855 13.34472656 40.13354492 C14.67579682 44.99353867 16.25763572 49.68971055 18.04296875 54.3984375 C22.31423755 66.00931514 25.46013419 78.2004473 29 90 C10.52 90 -7.96 90 -27 90 C-22.47247541 71.88990162 -22.47247541 71.88990162 -20.0625 65.125 C-18.02503574 59.21205682 -16.18720224 53.28930398 -14.5625 47.25 C-12.45562744 39.42138699 -10.02713148 31.71980899 -7.52905273 24.00805664 C-5.35824326 17.25835507 -3.45124164 10.48168948 -1.7265625 3.60546875 C-1 1 -1 1 0 0 Z " fill="#350200" transform="translate(221,186)"/>
<path d="M0 0 C5.47583513 2.83371947 9.57369871 7.36107933 12.29296875 12.86328125 C14.34147939 19.35504031 14.08948847 27.02839694 11.625 33.375 C8.55775619 39.26020631 3.89917178 43.27296248 -2.125 45.9375 C-9.66294293 47.06819144 -17.25611035 47.90323983 -24.05859375 43.8984375 C-29.51667591 39.69630113 -33.10830429 35.20011014 -34.875 28.5 C-35.68766601 20.88361856 -35.72958732 13.73551099 -30.875 7.5 C-28.71404045 5.20823176 -26.44035031 3.32185276 -23.875 1.5 C-22.575625 0.571875 -22.575625 0.571875 -21.25 -0.375 C-14.42657006 -2.64947665 -6.74467031 -2.60300312 0 0 Z " fill="#FC9800" transform="translate(370.875,145.5)"/>
</svg>
